<svg xmlns="http://www.w3.org/2000/svg" id="chartSvg" width="1353.51171875" height="610"><g id="chart"><style>
.detailed text {
  font-family: verdana, arial, sans-serif;
  font-size: 12px;
}

.detailed .name {
  font-weight: bold;
}

.link {
  fill: none;
  stroke: #000;
  stroke-width: 1px;
}

.additional-marriage {
  stroke-dasharray: 2;
}

.detailed rect {
  stroke: black;
}

.detailed {
  stroke-width: 2px;
}

.detailed .details {
  font-size: 10px;
}

.detailed .id {
  font-size: 10px;
  font-style: italic;
}

.detailed rect.nocolor {
  fill: #ffffff;
}

.detailed rect.bysex {
  fill: #eeeeee;
}

.detailed rect.bysex.male {
  fill: #dbffff;
}

.detailed rect.bysex.female {
  fill: #ffdbed;
}

.detailed rect.bygeneration {
  fill: #ffffdd;
}

.generation-11 .detailed rect.bygeneration, .generation1 .detailed rect.bygeneration {
  fill: #edffdb;
}

.generation-10 .detailed rect.bygeneration, .generation2 .detailed rect.bygeneration {
  fill: #dbffdb;
}

.generation-9 .detailed rect.bygeneration, .generation3 .detailed rect.bygeneration {
  fill: #dbffed;
}

.generation-8 .detailed rect.bygeneration, .generation4 .detailed rect.bygeneration {
  fill: #dbffff;
}

.generation-7 .detailed rect.bygeneration, .generation5 .detailed rect.bygeneration {
  fill: #dbedff;
}

.generation-6 .detailed rect.bygeneration, .generation6 .detailed rect.bygeneration {
  fill: #dbdbff;
}

.generation-5 .detailed rect.bygeneration, .generation7 .detailed rect.bygeneration {
  fill: #eddbff;
}

.generation-4 .detailed rect.bygeneration, .generation8 .detailed rect.bygeneration {
  fill: #ffdbff;
}

.generation-3 .detailed rect.bygeneration, .generation9 .detailed rect.bygeneration {
  fill: #ffdbed;
}

.generation-2 .detailed rect.bygeneration, .generation10 .detailed rect.bygeneration {
  fill: #ffdbdb;
}

.generation-1 .detailed rect.bygeneration, .generation11 .detailed rect.bygeneration {
  fill: #ffeddb;
}
.expander {
  fill: white;
  stroke: black;
  stroke-width: 2px;
  cursor: pointer;
}</style><g transform="translate(563.8349609375, 164)"><path class="link" d="M 0.2265625 -120&#10;            L 0.2265625 -74,&#10;              -87.3984375 -74,&#10;              -87.3984375 0"/><path class="link" d="M -20.48046875 0&#10;            L -20.48046875 74,&#10;              -468.9248046875 74,&#10;              -468.9248046875 141"/><path class="link" d="M -20.48046875 0&#10;            L -20.48046875 74,&#10;              -294.1044921875 74,&#10;              -294.1044921875 141"/><path class="link" d="M -20.48046875 0&#10;            L -20.48046875 74,&#10;              334.1435546875 74,&#10;              334.1435546875 141"/><path class="link" d="M -214.1943359375 141&#10;            L -214.1943359375 208,&#10;              -452.7021484375 208,&#10;              -452.7021484375 268"/><path class="link" d="M -214.1943359375 141&#10;            L -214.1943359375 208,&#10;              -137.3115234375 208,&#10;              -137.3115234375 268"/><path class="link" d="M 414.0537109375 141&#10;            L 414.0537109375 208,&#10;              186.1337890625 208,&#10;              186.1337890625 268"/><path class="link" d="M 414.0537109375 141&#10;            L 414.0537109375 208,&#10;              485.7001953125 208,&#10;              485.7001953125 268"/><path class="link" d="M -376.7841796875 268&#10;            L -376.7841796875 328,&#10;              -448.5966796875 328,&#10;              -448.5966796875 388"/><path class="link" d="M -376.7841796875 268&#10;            L -376.7841796875 328,&#10;              -308.2529296875 328,&#10;              -308.2529296875 388"/><path class="link" d="M -61.3935546875 268&#10;            L -61.3935546875 328,&#10;              -137.1435546875 328,&#10;              -137.1435546875 388"/><path class="link" d="M -61.3935546875 268&#10;            L -61.3935546875 328,&#10;              20.0908203125 328,&#10;              20.0908203125 388"/><path class="link" d="M 261.0908203125 268&#10;            L 261.0908203125 328,&#10;              243.3408203125 328,&#10;              243.3408203125 388"/><path class="link" d="M 560.6572265625 268&#10;            L 560.6572265625 328,&#10;              397.4111328125 328,&#10;              397.4111328125 388"/><path class="link" d="M 560.6572265625 268&#10;            L 560.6572265625 328,&#10;              551.3173828125 328,&#10;              551.3173828125 388"/><path class="link" d="M 560.6572265625 268&#10;            L 560.6572265625 328,&#10;              705.2236328125 328,&#10;              705.2236328125 388"/><g class="node generation-3" transform="translate(-71.6875, -149)"><g class="detailed"><g class="indi" transform="translate(0, 0)"><rect rx="5" stroke-width="0" class="background bygeneration male" width="71.9140625" height="58"/><clipPath id="clip-I42"><rect rx="5" width="71.9140625" height="58"/></clipPath><text text-anchor="middle" class="name" transform="translate(35.95703125, 17)">Francisco</text><text text-anchor="middle" class="name" transform="translate(35.95703125, 33)">AGUADO</text><text class="id" transform="translate(9, 53)">I42</text><text class="details sex" text-anchor="end" transform="translate(66.9140625, 53)">♂</text><rect rx="5" fill-opacity="0" class="border" width="71.9140625" height="58"/></g><g class="indi" transform="translate(71.9140625, 0)"><rect rx="5" stroke-width="0" class="background bygeneration female" width="71.4609375" height="58"/><clipPath id="clip-I43"><rect rx="5" width="71.4609375" height="58"/></clipPath><text text-anchor="middle" class="name" transform="translate(35.73046875, 17)">María</text><text text-anchor="middle" class="name" transform="translate(35.73046875, 33)">HIDALGO</text><text class="id" transform="translate(9, 53)">I43</text><text class="details sex" text-anchor="end" transform="translate(66.4609375, 53)">♀</text><rect rx="5" fill-opacity="0" class="border" width="71.4609375" height="58"/></g><g class="family" transform="translate(71.9140625, 58)"/></g></g><g class="node generation-2" transform="translate(-154.31640625, -57)"><g class="detailed"><g class="indi" transform="translate(0, 0)"><rect rx="5" stroke-width="0" class="background bygeneration male" width="133.8359375" height="114"/><clipPath id="clip-I57"><rect rx="5" width="133.8359375" height="114"/></clipPath><text text-anchor="middle" class="name" transform="translate(66.91796875, 17)">Rafael</text><text text-anchor="middle" class="name" transform="translate(66.91796875, 33)">AGUADO HIDALGO</text><text text-anchor="middle" class="details" transform="translate(9, 49)">*</text><text class="details" transform="translate(15, 49)">  13/12/</text><text text-anchor="middle" class="details" transform="translate(9, 63)">+</text><text class="details" transform="translate(15, 63)"> 22 Jul 1981 </text><text text-anchor="middle" class="details" transform="translate(9, 77)"/><text class="details" transform="translate(15, 77)">Madrid (SPAIN)</text><text class="id" transform="translate(9, 109)">I57</text><text class="details sex" text-anchor="end" transform="translate(128.8359375, 109)">♂</text><rect rx="5" fill-opacity="0" class="border" width="133.8359375" height="114"/></g><g class="indi" transform="translate(133.8359375, 0)"><rect rx="5" stroke-width="0" class="background bygeneration female" width="174.796875" height="114"/><clipPath id="clip-I59"><rect rx="5" width="174.796875" height="114"/></clipPath><text text-anchor="middle" class="name" transform="translate(87.3984375, 17)">Eulalia Luisa</text><text text-anchor="middle" class="name" transform="translate(87.3984375, 33)">VILLAMAYOR HARINERO</text><text text-anchor="middle" class="details" transform="translate(9, 49)">*</text><text class="details" transform="translate(15, 49)"> 12 Feb 1917 </text><text text-anchor="middle" class="details" transform="translate(9, 63)"/><text class="details" transform="translate(15, 63)">Madrid (SPAIN)</text><text text-anchor="middle" class="details" transform="translate(9, 77)">+</text><text class="details" transform="translate(15, 77)"> 16 Nov 1995 </text><text text-anchor="middle" class="details" transform="translate(9, 91)"/><text class="details" transform="translate(15, 91)">Madrid (SPAIN)</text><text class="id" transform="translate(9, 109)">I59</text><text class="details sex" text-anchor="end" transform="translate(169.796875, 109)">♀</text><rect rx="5" fill-opacity="0" class="border" width="174.796875" height="114"/></g><g class="family" transform="translate(133.8359375, 114)"/></g></g><g class="node generation-1" transform="translate(-548.8349609375, 91)"><g class="detailed"><g class="indi" transform="translate(0, 0)"><rect rx="5" stroke-width="0" class="background bygeneration female" width="159.8203125" height="100"/><clipPath id="clip-I62"><rect rx="5" width="159.8203125" height="100"/></clipPath><text text-anchor="middle" class="name" transform="translate(79.91015625, 17)">María Luisa</text><text text-anchor="middle" class="name" transform="translate(79.91015625, 33)">AGUADO VILLAMAYOR</text><text text-anchor="middle" class="details" transform="translate(9, 49)">*</text><text class="details" transform="translate(15, 49)"> 13 Nov 1947 </text><text text-anchor="middle" class="details" transform="translate(9, 63)"/><text class="details" transform="translate(15, 63)">Madrid (SPAIN)</text><text text-anchor="middle" class="details" transform="translate(9, 77)">+</text><text class="details" transform="translate(15, 77)">   1 </text><text class="id" transform="translate(9, 95)">I62</text><text class="details sex" text-anchor="end" transform="translate(154.8203125, 95)">♀</text><rect rx="5" fill-opacity="0" class="border" width="159.8203125" height="100"/></g></g></g><g class="node generation-1" transform="translate(-374.0146484375, 91)"><g class="detailed"><g class="indi" transform="translate(0, 0)"><rect rx="5" stroke-width="0" class="background bygeneration male" width="159.8203125" height="100"/><clipPath id="clip-I60"><rect rx="5" width="159.8203125" height="100"/></clipPath><text text-anchor="middle" class="name" transform="translate(79.91015625, 17)">Jesús</text><text text-anchor="middle" class="name" transform="translate(79.91015625, 33)">AGUADO VILLAMAYOR</text><text text-anchor="middle" class="details" transform="translate(9, 49)">*</text><text class="details" transform="translate(15, 49)"> 4 Jun 1953 </text><text text-anchor="middle" class="details" transform="translate(9, 63)"/><text class="details" transform="translate(15, 63)">Madrid (SPAIN)</text><text class="id" transform="translate(9, 95)">I60</text><text class="details sex" text-anchor="end" transform="translate(154.8203125, 95)">♂</text><rect rx="5" fill-opacity="0" class="border" width="159.8203125" height="100"/></g><g class="indi" transform="translate(159.8203125, 0)"><rect rx="5" stroke-width="0" class="background bygeneration female" width="155.765625" height="100"/><clipPath id="clip-I340"><rect rx="5" width="155.765625" height="100"/></clipPath><text text-anchor="middle" class="name" transform="translate(77.8828125, 17)">María Peña</text><text text-anchor="middle" class="name" transform="translate(77.8828125, 33)">RODRíGUEZ MORALES</text><text text-anchor="middle" class="details" transform="translate(9, 49)">*</text><text class="details" transform="translate(15, 49)"> 18 Apr 1954 </text><text text-anchor="middle" class="details" transform="translate(9, 63)"/><text class="details" transform="translate(15, 63)">Madrid (SPAIN)</text><text class="id" transform="translate(9, 95)">I340</text><text class="details sex" text-anchor="end" transform="translate(150.765625, 95)">♀</text><rect rx="5" fill-opacity="0" class="border" width="155.765625" height="100"/></g><g class="family" transform="translate(159.8203125, 100)"/></g></g><g class="node generation-1" transform="translate(254.2333984375, 91)"><g class="detailed"><g class="indi" transform="translate(0, 0)"><rect rx="5" stroke-width="0" class="background bygeneration female" width="159.8203125" height="100"/><clipPath id="clip-I61"><rect rx="5" width="159.8203125" height="100"/></clipPath><text text-anchor="middle" class="name" transform="translate(79.91015625, 17)">Juana</text><text text-anchor="middle" class="name" transform="translate(79.91015625, 33)">AGUADO VILLAMAYOR</text><text text-anchor="middle" class="details" transform="translate(9, 49)">*</text><text class="details" transform="translate(15, 49)"> 20 Jun 1956 </text><text text-anchor="middle" class="details" transform="translate(9, 63)"/><text class="details" transform="translate(15, 63)">Madrid (SPAIN)</text><text class="id" transform="translate(9, 95)">I61</text><text class="details sex" text-anchor="end" transform="translate(154.8203125, 95)">♀</text><rect rx="5" fill-opacity="0" class="border" width="159.8203125" height="100"/></g><g class="indi" transform="translate(159.8203125, 0)"><rect rx="5" stroke-width="0" class="background bygeneration male" width="134.78125" height="100"/><clipPath id="clip-I357"><rect rx="5" width="134.78125" height="100"/></clipPath><text text-anchor="middle" class="name" transform="translate(67.390625, 17)">Juan José</text><text text-anchor="middle" class="name" transform="translate(67.390625, 33)">CABALLERO LÓPEZ</text><text text-anchor="middle" class="details" transform="translate(9, 49)">*</text><text class="details" transform="translate(15, 49)"> 18 Jan 1955 </text><text class="id" transform="translate(9, 95)">I357</text><text class="details sex" text-anchor="end" transform="translate(129.78125, 95)">♂</text><rect rx="5" fill-opacity="0" class="border" width="134.78125" height="100"/></g><g class="family" transform="translate(159.8203125, 100)"/></g></g><g class="node generation0" transform="translate(-528.6201171875, 225)"><g class="detailed"><g class="indi" transform="translate(0, 0)"><rect rx="5" stroke-width="0" class="background bygeneration male" width="151.8359375" height="86"/><clipPath id="clip-I341"><rect rx="5" width="151.8359375" height="86"/></clipPath><text text-anchor="middle" class="name" transform="translate(75.91796875, 17)">Rafael</text><text text-anchor="middle" class="name" transform="translate(75.91796875, 33)">AGUADO RODRÍGUEZ</text><text text-anchor="middle" class="details" transform="translate(9, 49)">*</text><text class="details" transform="translate(15, 49)"> 23 Nov 1982 </text><text text-anchor="middle" class="details" transform="translate(9, 63)"/><text class="details" transform="translate(15, 63)">Madrid (SPAIN)</text><text class="id" transform="translate(9, 81)">I341</text><text class="details sex" text-anchor="end" transform="translate(146.8359375, 81)">♂</text><rect rx="5" fill-opacity="0" class="border" width="151.8359375" height="86"/></g><g class="indi" transform="translate(151.8359375, 0)"><rect rx="5" stroke-width="0" class="background bygeneration female" width="148.5546875" height="86"/><clipPath id="clip-I346"><rect rx="5" width="148.5546875" height="86"/></clipPath><text text-anchor="middle" class="name" transform="translate(74.27734375, 17)">Sandra</text><text text-anchor="middle" class="name" transform="translate(74.27734375, 33)">MARTÍN FERNÁNDEZ</text><text text-anchor="middle" class="details" transform="translate(9, 49)">*</text><text class="details" transform="translate(15, 49)"> 15 Oct 1982 </text><text text-anchor="middle" class="details" transform="translate(9, 63)"/><text class="details" transform="translate(15, 63)">Madrid (SPAIN)</text><text class="id" transform="translate(9, 81)">I346</text><text class="details sex" text-anchor="end" transform="translate(143.5546875, 81)">♀</text><rect rx="5" fill-opacity="0" class="border" width="148.5546875" height="86"/></g><g class="family" transform="translate(151.8359375, 86)"/></g></g><g class="node generation0" transform="translate(-213.2294921875, 225)"><g class="detailed"><g class="indi" transform="translate(0, 0)"><rect rx="5" stroke-width="0" class="background bygeneration female" width="151.8359375" height="86"/><clipPath id="clip-I342"><rect rx="5" width="151.8359375" height="86"/></clipPath><text text-anchor="middle" class="name" transform="translate(75.91796875, 17)">Alejandra</text><text text-anchor="middle" class="name" transform="translate(75.91796875, 33)">AGUADO RODRÍGUEZ</text><text text-anchor="middle" class="details" transform="translate(9, 49)">*</text><text class="details" transform="translate(15, 49)"> 7 Oct 1985 </text><text text-anchor="middle" class="details" transform="translate(9, 63)"/><text class="details" transform="translate(15, 63)">Madrid (SPAIN)</text><text class="id" transform="translate(9, 81)">I342</text><text class="details sex" text-anchor="end" transform="translate(146.8359375, 81)">♀</text><rect rx="5" fill-opacity="0" class="border" width="151.8359375" height="86"/></g><g class="indi" transform="translate(151.8359375, 0)"><rect rx="5" stroke-width="0" class="background bygeneration male" width="157.5703125" height="86"/><clipPath id="clip-I343"><rect rx="5" width="157.5703125" height="86"/></clipPath><text text-anchor="middle" class="name" transform="translate(78.78515625, 17)">Jorge</text><text text-anchor="middle" class="name" transform="translate(78.78515625, 33)">GONZÁLEZ CIDONCHA</text><text text-anchor="middle" class="details" transform="translate(9, 49)">*</text><text class="details" transform="translate(15, 49)"> 4 Nov 1981 </text><text text-anchor="middle" class="details" transform="translate(9, 63)"/><text class="details" transform="translate(15, 63)">Madrid (SPAIN)</text><text class="id" transform="translate(9, 81)">I343</text><text class="details sex" text-anchor="end" transform="translate(152.5703125, 81)">♂</text><rect rx="5" fill-opacity="0" class="border" width="157.5703125" height="86"/></g><g class="family" transform="translate(151.8359375, 86)"/></g></g><g class="node generation0" transform="translate(111.1767578125, 225)"><g class="detailed"><g class="indi" transform="translate(0, 0)"><rect rx="5" stroke-width="0" class="background bygeneration female" width="149.9140625" height="86"/><clipPath id="clip-I358"><rect rx="5" width="149.9140625" height="86"/></clipPath><text text-anchor="middle" class="name" transform="translate(74.95703125, 17)">Bárbara</text><text text-anchor="middle" class="name" transform="translate(74.95703125, 33)">CABALLERO AGUADO</text><text text-anchor="middle" class="details" transform="translate(9, 49)">*</text><text class="details" transform="translate(15, 49)"> 2 Feb 1981 </text><text text-anchor="middle" class="details" transform="translate(9, 63)"/><text class="details" transform="translate(15, 63)">Madrid (SPAIN)</text><text class="id" transform="translate(9, 81)">I358</text><text class="details sex" text-anchor="end" transform="translate(144.9140625, 81)">♀</text><rect rx="5" fill-opacity="0" class="border" width="149.9140625" height="86"/></g><g class="indi" transform="translate(149.9140625, 0)"><rect rx="5" stroke-width="0" class="background bygeneration male" width="114.4140625" height="86"/><clipPath id="clip-I359"><rect rx="5" width="114.4140625" height="86"/></clipPath><text text-anchor="middle" class="name" transform="translate(57.20703125, 17)">Alfonso</text><text text-anchor="middle" class="name" transform="translate(57.20703125, 33)">ZURDO ALGARA</text><text text-anchor="middle" class="details" transform="translate(9, 49)">*</text><text class="details" transform="translate(15, 49)"> 6 Aug 1978 </text><text text-anchor="middle" class="details" transform="translate(9, 63)"/><text class="details" transform="translate(15, 63)">Madrid (SPAIN)</text><text class="id" transform="translate(9, 81)">I359</text><text class="details sex" text-anchor="end" transform="translate(109.4140625, 81)">♂</text><rect rx="5" fill-opacity="0" class="border" width="114.4140625" height="86"/></g><g class="family" transform="translate(149.9140625, 86)"/></g></g><g class="node generation0" transform="translate(410.7431640625, 225)"><g class="detailed"><g class="indi" transform="translate(0, 0)"><rect rx="5" stroke-width="0" class="background bygeneration female" width="149.9140625" height="86"/><clipPath id="clip-I361"><rect rx="5" width="149.9140625" height="86"/></clipPath><text text-anchor="middle" class="name" transform="translate(74.95703125, 17)">Natalia María</text><text text-anchor="middle" class="name" transform="translate(74.95703125, 33)">CABALLERO AGUADO</text><text text-anchor="middle" class="details" transform="translate(9, 49)">*</text><text class="details" transform="translate(15, 49)"> 12 Jan 1984 </text><text text-anchor="middle" class="details" transform="translate(9, 63)"/><text class="details" transform="translate(15, 63)">Madrid (SPAIN)</text><text class="id" transform="translate(9, 81)">I361</text><text class="details sex" text-anchor="end" transform="translate(144.9140625, 81)">♀</text><rect rx="5" fill-opacity="0" class="border" width="149.9140625" height="86"/></g><g class="indi" transform="translate(149.9140625, 0)"><rect rx="5" stroke-width="0" class="background bygeneration male" width="131.234375" height="86"/><clipPath id="clip-I362"><rect rx="5" width="131.234375" height="86"/></clipPath><text text-anchor="middle" class="name" transform="translate(65.6171875, 17)">Antonio Manuel</text><text text-anchor="middle" class="name" transform="translate(65.6171875, 33)">MATEO GONZÁLEZ</text><text text-anchor="middle" class="details" transform="translate(9, 49)">*</text><text class="details" transform="translate(15, 49)"> 7 May 1983 </text><text text-anchor="middle" class="details" transform="translate(9, 63)"/><text class="details" transform="translate(15, 63)">Madrid (SPAIN)</text><text class="id" transform="translate(9, 81)">I362</text><text class="details sex" text-anchor="end" transform="translate(126.234375, 81)">♂</text><rect rx="5" fill-opacity="0" class="border" width="131.234375" height="86"/></g><g class="family" transform="translate(149.9140625, 86)"/></g></g><g class="node generation1" transform="translate(-511.2685546875, 345)"><g class="detailed"><g class="indi" transform="translate(0, 0)"><rect rx="5" stroke-width="0" class="background bygeneration male" width="125.34375" height="86"/><clipPath id="clip-I347"><rect rx="5" width="125.34375" height="86"/></clipPath><text text-anchor="middle" class="name" transform="translate(62.671875, 17)">Gonzalo</text><text text-anchor="middle" class="name" transform="translate(62.671875, 33)">AGUADO MARTÍN</text><text text-anchor="middle" class="details" transform="translate(9, 49)">*</text><text class="details" transform="translate(15, 49)"> 29 Jun 2013 </text><text text-anchor="middle" class="details" transform="translate(9, 63)"/><text class="details" transform="translate(15, 63)">Madrid (SPAIN)</text><text class="id" transform="translate(9, 81)">I347</text><text class="details sex" text-anchor="end" transform="translate(120.34375, 81)">♂</text><rect rx="5" fill-opacity="0" class="border" width="125.34375" height="86"/></g></g></g><g class="node generation1" transform="translate(-370.9248046875, 345)"><g class="detailed"><g class="indi" transform="translate(0, 0)"><rect rx="5" stroke-width="0" class="background bygeneration male" width="125.34375" height="86"/><clipPath id="clip-I348"><rect rx="5" width="125.34375" height="86"/></clipPath><text text-anchor="middle" class="name" transform="translate(62.671875, 17)">Rafael</text><text text-anchor="middle" class="name" transform="translate(62.671875, 33)">AGUADO MARTÍN</text><text text-anchor="middle" class="details" transform="translate(9, 49)">*</text><text class="details" transform="translate(15, 49)"> 23 Nov 2016 </text><text text-anchor="middle" class="details" transform="translate(9, 63)"/><text class="details" transform="translate(15, 63)">Madrid (SPAIN)</text><text class="id" transform="translate(9, 81)">I348</text><text class="details sex" text-anchor="end" transform="translate(120.34375, 81)">♂</text><rect rx="5" fill-opacity="0" class="border" width="125.34375" height="86"/></g></g></g><g class="node generation1" transform="translate(-208.2607421875, 345)"><g class="detailed"><g class="indi" transform="translate(0, 0)"><rect rx="5" stroke-width="0" class="background bygeneration female" width="142.234375" height="86"/><clipPath id="clip-I344"><rect rx="5" width="142.234375" height="86"/></clipPath><text text-anchor="middle" class="name" transform="translate(71.1171875, 17)">Candela</text><text text-anchor="middle" class="name" transform="translate(71.1171875, 33)">GONZÁLEZ AGUADO</text><text text-anchor="middle" class="details" transform="translate(9, 49)">*</text><text class="details" transform="translate(15, 49)"> 11 Apr 2016 </text><text text-anchor="middle" class="details" transform="translate(9, 63)"/><text class="details" transform="translate(15, 63)">Madrid (SPAIN)</text><text class="id" transform="translate(9, 81)">I344</text><text class="details sex" text-anchor="end" transform="translate(137.234375, 81)">♀</text><rect rx="5" fill-opacity="0" class="border" width="142.234375" height="86"/></g></g></g><g class="node generation1" transform="translate(-51.0263671875, 345)"><g class="detailed"><g class="indi" transform="translate(0, 0)"><rect rx="5" stroke-width="0" class="background bygeneration female" width="142.234375" height="86"/><clipPath id="clip-I345"><rect rx="5" width="142.234375" height="86"/></clipPath><text text-anchor="middle" class="name" transform="translate(71.1171875, 17)">Claudia</text><text text-anchor="middle" class="name" transform="translate(71.1171875, 33)">GONZÁLEZ AGUADO</text><text text-anchor="middle" class="details" transform="translate(9, 49)">*</text><text class="details" transform="translate(15, 49)"> 12 Jul 2020 </text><text text-anchor="middle" class="details" transform="translate(9, 63)"/><text class="details" transform="translate(15, 63)">Madrid (SPAIN)</text><text class="id" transform="translate(9, 81)">I345</text><text class="details sex" text-anchor="end" transform="translate(137.234375, 81)">♀</text><rect rx="5" fill-opacity="0" class="border" width="142.234375" height="86"/></g></g></g><g class="node generation1" transform="translate(173.7236328125, 345)"><g class="detailed"><g class="indi" transform="translate(0, 0)"><rect rx="5" stroke-width="0" class="background bygeneration male" width="139.234375" height="86"/><clipPath id="clip-I360"><rect rx="5" width="139.234375" height="86"/></clipPath><text text-anchor="middle" class="name" transform="translate(69.6171875, 17)">Nicolás</text><text text-anchor="middle" class="name" transform="translate(69.6171875, 33)">ZURDO CABALLERO</text><text text-anchor="middle" class="details" transform="translate(9, 49)">*</text><text class="details" transform="translate(15, 49)"> 2 Feb 2012 </text><text text-anchor="middle" class="details" transform="translate(9, 63)"/><text class="details" transform="translate(15, 63)">Madrid (SPAIN)</text><text class="id" transform="translate(9, 81)">I360</text><text class="details sex" text-anchor="end" transform="translate(134.234375, 81)">♂</text><rect rx="5" fill-opacity="0" class="border" width="139.234375" height="86"/></g></g></g><g class="node generation1" transform="translate(327.9580078125, 345)"><g class="detailed"><g class="indi" transform="translate(0, 0)"><rect rx="5" stroke-width="0" class="background bygeneration male" width="138.90625" height="86"/><clipPath id="clip-I363"><rect rx="5" width="138.90625" height="86"/></clipPath><text text-anchor="middle" class="name" transform="translate(69.453125, 17)">Lucas</text><text text-anchor="middle" class="name" transform="translate(69.453125, 33)">MATEO CABALLERO</text><text text-anchor="middle" class="details" transform="translate(9, 49)">*</text><text class="details" transform="translate(15, 49)"> 22 Apr 2015 </text><text text-anchor="middle" class="details" transform="translate(9, 63)"/><text class="details" transform="translate(15, 63)">Madrid (SPAIN)</text><text class="id" transform="translate(9, 81)">I363</text><text class="details sex" text-anchor="end" transform="translate(133.90625, 81)">♂</text><rect rx="5" fill-opacity="0" class="border" width="138.90625" height="86"/></g></g></g><g class="node generation1" transform="translate(481.8642578125, 345)"><g class="detailed"><g class="indi" transform="translate(0, 0)"><rect rx="5" stroke-width="0" class="background bygeneration male" width="138.90625" height="86"/><clipPath id="clip-I364"><rect rx="5" width="138.90625" height="86"/></clipPath><text text-anchor="middle" class="name" transform="translate(69.453125, 17)">Jaime</text><text text-anchor="middle" class="name" transform="translate(69.453125, 33)">MATEO CABALLERO</text><text text-anchor="middle" class="details" transform="translate(9, 49)">*</text><text class="details" transform="translate(15, 49)"> 18 Jun 2019 </text><text text-anchor="middle" class="details" transform="translate(9, 63)"/><text class="details" transform="translate(15, 63)">Madrid (SPAIN)</text><text class="id" transform="translate(9, 81)">I364</text><text class="details sex" text-anchor="end" transform="translate(133.90625, 81)">♂</text><rect rx="5" fill-opacity="0" class="border" width="138.90625" height="86"/></g></g></g><g class="node generation1" transform="translate(635.7705078125, 345)"><g class="detailed"><g class="indi" transform="translate(0, 0)"><rect rx="5" stroke-width="0" class="background bygeneration male" width="138.90625" height="86"/><clipPath id="clip-I365"><rect rx="5" width="138.90625" height="86"/></clipPath><text text-anchor="middle" class="name" transform="translate(69.453125, 17)">Beltrán</text><text text-anchor="middle" class="name" transform="translate(69.453125, 33)">MATEO CABALLERO</text><text text-anchor="middle" class="details" transform="translate(9, 49)">*</text><text class="details" transform="translate(15, 49)"> 10 Oct 2022 </text><text text-anchor="middle" class="details" transform="translate(9, 63)"/><text class="details" transform="translate(15, 63)">Madrid (SPAIN)</text><text class="id" transform="translate(9, 81)">I365</text><text class="details sex" text-anchor="end" transform="translate(133.90625, 81)">♂</text><rect rx="5" fill-opacity="0" class="border" width="138.90625" height="86"/></g></g></g></g></g></svg>