<svg xmlns="http://www.w3.org/2000/svg" id="chartSvg" width="1271.0390625" height="652"><g id="chart"><style>
.detailed text {
  font-family: verdana, arial, sans-serif;
  font-size: 12px;
}

.detailed .name {
  font-weight: bold;
}

.link {
  fill: none;
  stroke: #000;
  stroke-width: 1px;
}

.additional-marriage {
  stroke-dasharray: 2;
}

.detailed rect {
  stroke: black;
}

.detailed {
  stroke-width: 2px;
}

.detailed .details {
  font-size: 10px;
}

.detailed .id {
  font-size: 10px;
  font-style: italic;
}

.detailed rect.nocolor {
  fill: #ffffff;
}

.detailed rect.bysex {
  fill: #eeeeee;
}

.detailed rect.bysex.male {
  fill: #dbffff;
}

.detailed rect.bysex.female {
  fill: #ffdbed;
}

.detailed rect.bygeneration {
  fill: #ffffdd;
}

.generation-11 .detailed rect.bygeneration, .generation1 .detailed rect.bygeneration {
  fill: #edffdb;
}

.generation-10 .detailed rect.bygeneration, .generation2 .detailed rect.bygeneration {
  fill: #dbffdb;
}

.generation-9 .detailed rect.bygeneration, .generation3 .detailed rect.bygeneration {
  fill: #dbffed;
}

.generation-8 .detailed rect.bygeneration, .generation4 .detailed rect.bygeneration {
  fill: #dbffff;
}

.generation-7 .detailed rect.bygeneration, .generation5 .detailed rect.bygeneration {
  fill: #dbedff;
}

.generation-6 .detailed rect.bygeneration, .generation6 .detailed rect.bygeneration {
  fill: #dbdbff;
}

.generation-5 .detailed rect.bygeneration, .generation7 .detailed rect.bygeneration {
  fill: #eddbff;
}

.generation-4 .detailed rect.bygeneration, .generation8 .detailed rect.bygeneration {
  fill: #ffdbff;
}

.generation-3 .detailed rect.bygeneration, .generation9 .detailed rect.bygeneration {
  fill: #ffdbed;
}

.generation-2 .detailed rect.bygeneration, .generation10 .detailed rect.bygeneration {
  fill: #ffdbdb;
}

.generation-1 .detailed rect.bygeneration, .generation11 .detailed rect.bygeneration {
  fill: #ffeddb;
}
.expander {
  fill: white;
  stroke: black;
  stroke-width: 2px;
  cursor: pointer;
}</style><g transform="translate(635.51953125, 192)"><path class="link" d="M 0 -134&#10;            L 0 -74,&#10;              79.80859375 -74,&#10;              79.80859375 0" style="opacity: 1;"/><path class="link" d="M -10.4765625 0&#10;            L -10.4765625 74,&#10;              -538.484375 74,&#10;              -538.484375 148" style="opacity: 1;"/><path class="link" d="M -10.4765625 0&#10;            L -10.4765625 74,&#10;              -117.9609375 74,&#10;              -117.9609375 148" style="opacity: 1;"/><path class="link" d="M -10.4765625 0&#10;            L -10.4765625 74,&#10;              61.109375 74,&#10;              61.109375 148" style="opacity: 1;"/><path class="link" d="M -10.4765625 0&#10;            L -10.4765625 74,&#10;              345.7265625 74,&#10;              345.7265625 148" style="opacity: 1;"/><path class="link" d="M -456.44921875 148&#10;            L -456.44921875 222,&#10;              -487.30859375 222,&#10;              -487.30859375 282" style="opacity: 1;"/><path class="link" d="M 143.14453125 148&#10;            L 143.14453125 222,&#10;              -59.93359375 222,&#10;              -59.93359375 282" style="opacity: 1;"/><path class="link" d="M 143.14453125 148&#10;            L 143.14453125 222,&#10;              159.11328125 222,&#10;              159.11328125 282" style="opacity: 1;"/><path class="link" d="M 427.76171875 148&#10;            L 427.76171875 222,&#10;              442.10546875 222,&#10;              442.10546875 282" style="opacity: 1;"/><path class="link" d="M -427.4453125 282&#10;            L -427.4453125 342,&#10;              -480.5703125 342,&#10;              -480.5703125 402" style="opacity: 1;"/><path class="link" d="M -427.4453125 282&#10;            L -427.4453125 342,&#10;              -354.9453125 342,&#10;              -354.9453125 402" style="opacity: 1;"/><path class="link" d="M -8.53125 282&#10;            L -8.53125 342,&#10;              -67.6328125 342,&#10;              -67.6328125 402" style="opacity: 1;"/><path class="link" d="M -8.53125 282&#10;            L -8.53125 342,&#10;              49.0078125 342,&#10;              49.0078125 402" style="opacity: 1;"/><path class="link" d="M 210.515625 282&#10;            L 210.515625 342,&#10;              166.078125 342,&#10;              166.078125 402" style="opacity: 1;"/><path class="link" d="M 210.515625 282&#10;            L 210.515625 342,&#10;              280.734375 342,&#10;              280.734375 402" style="opacity: 1;"/><g class="node generation-2" transform="translate(-170.09375, -57)" style="opacity: 1;"><g class="detailed"><g class="indi" transform="translate(159.6171875, 0)"><rect rx="5" stroke-width="0" class="background bygeneration female" width="180.5703125" height="114"/><clipPath id="clip-I28"><rect rx="5" width="180.5703125" height="114"/></clipPath><text text-anchor="middle" class="name" transform="translate(90.28515625, 17)">Faustina</text><text text-anchor="middle" class="name" transform="translate(90.28515625, 33)">DE LAS HERAS PRADALES</text><text text-anchor="middle" class="details" transform="translate(9, 49)">*</text><text class="details" transform="translate(15, 49)"> 22 Nov 1917 </text><text text-anchor="middle" class="details" transform="translate(9, 63)"/><text class="details" transform="translate(15, 63)">Fuentecén, Burgos (SPAIN)</text><text text-anchor="middle" class="details" transform="translate(9, 77)">+</text><text class="details" transform="translate(15, 77)"> 29 Jan 2005 </text><text text-anchor="middle" class="details" transform="translate(9, 91)"/><text class="details" transform="translate(15, 91)">Madrid (SPAIN)</text><text class="id" transform="translate(9, 109)">I28</text><text class="details sex" text-anchor="end" transform="translate(175.5703125, 109)">♀</text><rect rx="5" fill-opacity="0" class="border" width="180.5703125" height="114"/></g><g class="indi" transform="translate(0, 0)"><rect rx="5" stroke-width="0" class="background bygeneration male" width="159.6171875" height="114"/><clipPath id="clip-I90"><rect rx="5" width="159.6171875" height="114"/></clipPath><text text-anchor="middle" class="name" transform="translate(79.80859375, 17)">Conceso</text><text text-anchor="middle" class="name" transform="translate(79.80859375, 33)">HERVÁS MARTÍNEZ</text><text text-anchor="middle" class="details" transform="translate(9, 49)">*</text><text class="details" transform="translate(15, 49)"> 8 Apr 1918 </text><text text-anchor="middle" class="details" transform="translate(9, 63)"/><text class="details" transform="translate(15, 63)">Fuentecén, Burgos (SPAIN)</text><text text-anchor="middle" class="details" transform="translate(9, 77)">+</text><text class="details" transform="translate(15, 77)"> 12 Jan 2014 </text><text text-anchor="middle" class="details" transform="translate(9, 91)"/><text class="details" transform="translate(15, 91)">Madrid (SPAIN)</text><text class="id" transform="translate(9, 109)">I90</text><text class="details sex" text-anchor="end" transform="translate(154.6171875, 109)">♂</text><rect rx="5" fill-opacity="0" class="border" width="159.6171875" height="114"/></g><g class="family" transform="translate(159.6171875, 114)"/></g></g><g class="node generation-3" transform="translate(-159.6171875, -177)"><g class="detailed"><g class="indi" transform="translate(0, 0)"><rect rx="5" stroke-width="0" class="background bygeneration male" width="159.6171875" height="86"/><clipPath id="clip-I21"><rect rx="5" width="159.6171875" height="86"/></clipPath><text text-anchor="middle" class="name" transform="translate(79.80859375, 17)">Francisco (Paco)</text><text text-anchor="middle" class="name" transform="translate(79.80859375, 33)">DE LAS HERAS</text><text text-anchor="middle" class="details" transform="translate(9, 49)">+</text><text class="details" transform="translate(15, 49)"> 10 Sep 1964 </text><text text-anchor="middle" class="details" transform="translate(9, 63)"/><text class="details" transform="translate(15, 63)">Fuentecén, Burgos (SPAIN)</text><text class="id" transform="translate(9, 81)">I21</text><text class="details sex" text-anchor="end" transform="translate(154.6171875, 81)">♂</text><rect rx="5" fill-opacity="0" class="border" width="159.6171875" height="86"/></g><g class="indi" transform="translate(159.6171875, 0)"><rect rx="5" stroke-width="0" class="background bygeneration female" width="159.6171875" height="86"/><clipPath id="clip-I22"><rect rx="5" width="159.6171875" height="86"/></clipPath><text text-anchor="middle" class="name" transform="translate(79.80859375, 17)">Felisa</text><text text-anchor="middle" class="name" transform="translate(79.80859375, 33)">PRADALES</text><text text-anchor="middle" class="details" transform="translate(9, 49)">+</text><text class="details" transform="translate(15, 49)">   1919 </text><text text-anchor="middle" class="details" transform="translate(9, 63)"/><text class="details" transform="translate(15, 63)">Fuentecén, Burgos (SPAIN)</text><text class="id" transform="translate(9, 81)">I22</text><text class="details sex" text-anchor="end" transform="translate(154.6171875, 81)">♀</text><rect rx="5" fill-opacity="0" class="border" width="159.6171875" height="86"/></g><g class="family" transform="translate(159.6171875, 86)"/></g></g><g class="node generation-1" transform="translate(-620.51953125, 91)" style="opacity: 1;"><g class="detailed"><g class="indi" transform=""><rect rx="5" stroke-width="0" class="background bygeneration female" width="164.0703125" height="114"/><clipPath id="clip-I91"><rect rx="5" width="164.0703125" height="114"/></clipPath><text text-anchor="middle" class="name" transform="translate(82.03515625, 17)">Amparo</text><text text-anchor="middle" class="name" transform="translate(82.03515625, 33)">HERVÁS DE LAS HERAS</text><text text-anchor="middle" class="details" transform="translate(9, 49)">*</text><text class="details" transform="translate(15, 49)"> 7 Feb 1946 </text><text text-anchor="middle" class="details" transform="translate(9, 63)"/><text class="details" transform="translate(15, 63)">Fuentecén, Burgos (SPAIN)</text><text text-anchor="middle" class="details" transform="translate(9, 77)">+</text><text class="details" transform="translate(15, 77)"> 14 Apr 2023 </text><text text-anchor="middle" class="details" transform="translate(9, 91)"/><text class="details" transform="translate(15, 91)">Madrid (SPAIN)</text><text class="id" transform="translate(9, 109)">I91</text><text class="details sex" text-anchor="end" transform="translate(159.0703125, 109)">♀</text><rect rx="5" fill-opacity="0" class="border" width="164.0703125" height="114"/></g><g class="indi" transform="translate(164.0703125, 0)"><rect rx="5" stroke-width="0" class="background bygeneration male" width="241.453125" height="114"/><clipPath id="clip-I95"><rect rx="5" width="241.453125" height="114"/></clipPath><text text-anchor="middle" class="name" transform="translate(120.7265625, 17)">Daniel</text><text text-anchor="middle" class="name" transform="translate(120.7265625, 33)">GARCÍA RAMOS</text><text text-anchor="middle" class="details" transform="translate(9, 49)">*</text><text class="details" transform="translate(15, 49)"> 18 Feb 1949 </text><text text-anchor="middle" class="details" transform="translate(9, 63)"/><text class="details" transform="translate(15, 63)">Villarreal de los Infantes, Castellón (SPAIN)</text><text text-anchor="middle" class="details" transform="translate(9, 77)">+</text><text class="details" transform="translate(15, 77)"> 5 Sep 2023 </text><text text-anchor="middle" class="details" transform="translate(9, 91)"/><text class="details" transform="translate(15, 91)">Madrid (SPAIN)</text><text class="id" transform="translate(9, 109)">I95</text><text class="details sex" text-anchor="end" transform="translate(236.453125, 109)">♂</text><rect rx="5" fill-opacity="0" class="border" width="241.453125" height="114"/></g><g class="family" transform="translate(164.0703125, 114)"/></g></g><g class="node generation-1" transform="translate(-199.99609375, 91)" style="opacity: 1;"><g class="detailed"><g class="indi" transform=""><rect rx="5" stroke-width="0" class="background bygeneration female" width="164.0703125" height="114"/><clipPath id="clip-I92"><rect rx="5" width="164.0703125" height="114"/></clipPath><text text-anchor="middle" class="name" transform="translate(82.03515625, 17)">Celia</text><text text-anchor="middle" class="name" transform="translate(82.03515625, 33)">HERVÁS DE LAS HERAS</text><text text-anchor="middle" class="details" transform="translate(9, 49)">*</text><text class="details" transform="translate(15, 49)">  02/1047</text><text text-anchor="middle" class="details" transform="translate(9, 63)"/><text class="details" transform="translate(15, 63)">Fuentecén, Burgos (SPAIN)</text><text text-anchor="middle" class="details" transform="translate(9, 77)">+</text><text class="details" transform="translate(15, 77)">  07/1947</text><text text-anchor="middle" class="details" transform="translate(9, 91)"/><text class="details" transform="translate(15, 91)">Fuentecén, Burgos (SPAIN)</text><text class="id" transform="translate(9, 109)">I92</text><text class="details sex" text-anchor="end" transform="translate(159.0703125, 109)">♀</text><rect rx="5" fill-opacity="0" class="border" width="164.0703125" height="114"/></g></g></g><g class="node generation-1" transform="translate(-20.92578125, 91)" style="opacity: 1;"><g class="detailed"><g class="indi" transform=""><rect rx="5" stroke-width="0" class="background bygeneration female" width="164.0703125" height="114"/><clipPath id="clip-I93"><rect rx="5" width="164.0703125" height="114"/></clipPath><text text-anchor="middle" class="name" transform="translate(82.03515625, 17)">Raquel</text><text text-anchor="middle" class="name" transform="translate(82.03515625, 33)">HERVÁS DE LAS HERAS</text><text text-anchor="middle" class="details" transform="translate(9, 49)">*</text><text class="details" transform="translate(15, 49)"> 18 Aug 1948 </text><text text-anchor="middle" class="details" transform="translate(9, 63)"/><text class="details" transform="translate(15, 63)">Fuentecén, Burgos (SPAIN)</text><text class="id" transform="translate(9, 109)">I93</text><text class="details sex" text-anchor="end" transform="translate(159.0703125, 109)">♀</text><rect rx="5" fill-opacity="0" class="border" width="164.0703125" height="114"/></g><g class="indi" transform="translate(164.0703125, 0)"><rect rx="5" stroke-width="0" class="background bygeneration male" width="105.546875" height="114"/><clipPath id="clip-I101"><rect rx="5" width="105.546875" height="114"/></clipPath><text text-anchor="middle" class="name" transform="translate(52.7734375, 17)">Enrique</text><text text-anchor="middle" class="name" transform="translate(52.7734375, 33)">VERA TEJEIRO</text><text text-anchor="middle" class="details" transform="translate(9, 49)">*</text><text class="details" transform="translate(15, 49)"> 9 Mar 1948 </text><text text-anchor="middle" class="details" transform="translate(9, 63)"/><text class="details" transform="translate(15, 63)">Madrid (SPAIN)</text><text class="id" transform="translate(9, 109)">I101</text><text class="details sex" text-anchor="end" transform="translate(100.546875, 109)">♂</text><rect rx="5" fill-opacity="0" class="border" width="105.546875" height="114"/></g><g class="family" transform="translate(164.0703125, 114)"/></g></g><g class="node generation-1" transform="translate(263.69140625, 91)" style="opacity: 1;"><g class="detailed"><g class="indi" transform=""><rect rx="5" stroke-width="0" class="background bygeneration male" width="164.0703125" height="114"/><clipPath id="clip-I94"><rect rx="5" width="164.0703125" height="114"/></clipPath><text text-anchor="middle" class="name" transform="translate(82.03515625, 17)">Juan</text><text text-anchor="middle" class="name" transform="translate(82.03515625, 33)">HERVÁS DE LAS HERAS</text><text text-anchor="middle" class="details" transform="translate(9, 49)">*</text><text class="details" transform="translate(15, 49)"> 20 Dec 1962 </text><text text-anchor="middle" class="details" transform="translate(9, 63)"/><text class="details" transform="translate(15, 63)">Fuentecén, Burgos (SPAIN)</text><text class="id" transform="translate(9, 109)">I94</text><text class="details sex" text-anchor="end" transform="translate(159.0703125, 109)">♂</text><rect rx="5" fill-opacity="0" class="border" width="164.0703125" height="114"/></g><g class="indi" transform="translate(164.0703125, 0)"><rect rx="5" stroke-width="0" class="background bygeneration female" width="192.7578125" height="114"/><clipPath id="clip-I100"><rect rx="5" width="192.7578125" height="114"/></clipPath><text text-anchor="middle" class="name" transform="translate(96.37890625, 17)">Antonia</text><text text-anchor="middle" class="name" transform="translate(96.37890625, 33)">CORDERO</text><text text-anchor="middle" class="details" transform="translate(9, 49)">*</text><text class="details" transform="translate(15, 49)"> 2 Feb 1960 </text><text text-anchor="middle" class="details" transform="translate(9, 63)"/><text class="details" transform="translate(15, 63)">Aranda de Duero, Burgos (SPAIN)</text><text class="id" transform="translate(9, 109)">I100</text><text class="details sex" text-anchor="end" transform="translate(187.7578125, 109)">♀</text><rect rx="5" fill-opacity="0" class="border" width="192.7578125" height="114"/></g><g class="family" transform="translate(164.0703125, 114)"/></g></g><g class="node generation0" transform="translate(-547.171875, 239)" style="opacity: 1;"><g class="detailed"><g class="indi" transform=""><rect rx="5" stroke-width="0" class="background bygeneration female" width="119.7265625" height="86"/><clipPath id="clip-I96"><rect rx="5" width="119.7265625" height="86"/></clipPath><text text-anchor="middle" class="name" transform="translate(59.86328125, 17)">Almudena</text><text text-anchor="middle" class="name" transform="translate(59.86328125, 33)">GARCÍA HERVÁS</text><text text-anchor="middle" class="details" transform="translate(9, 49)">*</text><text class="details" transform="translate(15, 49)"> 19 Apr 1979 </text><text text-anchor="middle" class="details" transform="translate(9, 63)"/><text class="details" transform="translate(15, 63)">Madrid (SPAIN)</text><text class="id" transform="translate(9, 81)">I96</text><text class="details sex" text-anchor="end" transform="translate(114.7265625, 81)">♀</text><rect rx="5" fill-opacity="0" class="border" width="119.7265625" height="86"/></g><g class="indi" transform="translate(119.7265625, 0)"><rect rx="5" stroke-width="0" class="background bygeneration male" width="139.1015625" height="86"/><clipPath id="clip-I97"><rect rx="5" width="139.1015625" height="86"/></clipPath><text text-anchor="middle" class="name" transform="translate(69.55078125, 17)">David</text><text text-anchor="middle" class="name" transform="translate(69.55078125, 33)">LUQUE RODRÍGUEZ</text><text text-anchor="middle" class="details" transform="translate(9, 49)">*</text><text class="details" transform="translate(15, 49)"> 1 Aug 1975 </text><text text-anchor="middle" class="details" transform="translate(9, 63)"/><text class="details" transform="translate(15, 63)">Madrid (SPAIN)</text><text class="id" transform="translate(9, 81)">I97</text><text class="details sex" text-anchor="end" transform="translate(134.1015625, 81)">♂</text><rect rx="5" fill-opacity="0" class="border" width="139.1015625" height="86"/></g><g class="family" transform="translate(119.7265625, 86)"/></g></g><g class="node generation0" transform="translate(-111.3359375, 239)" style="opacity: 1;"><g class="detailed"><g class="indi" transform=""><rect rx="5" stroke-width="0" class="background bygeneration female" width="102.8046875" height="86"/><clipPath id="clip-I102"><rect rx="5" width="102.8046875" height="86"/></clipPath><text text-anchor="middle" class="name" transform="translate(51.40234375, 17)">María</text><text text-anchor="middle" class="name" transform="translate(51.40234375, 33)">VERA HERVÁS</text><text text-anchor="middle" class="details" transform="translate(9, 49)">*</text><text class="details" transform="translate(15, 49)"> 26 Jun 1976 </text><text text-anchor="middle" class="details" transform="translate(9, 63)"/><text class="details" transform="translate(15, 63)">Madrid (SPAIN)</text><text class="id" transform="translate(9, 81)">I102</text><text class="details sex" text-anchor="end" transform="translate(97.8046875, 81)">♀</text><rect rx="5" fill-opacity="0" class="border" width="102.8046875" height="86"/></g><g class="indi" transform="translate(102.8046875, 0)"><rect rx="5" stroke-width="0" class="background bygeneration male" width="101.2421875" height="86"/><clipPath id="clip-I111"><rect rx="5" width="101.2421875" height="86"/></clipPath><text text-anchor="middle" class="name" transform="translate(50.62109375, 17)">Jesús Enrique</text><text text-anchor="middle" class="name" transform="translate(50.62109375, 33)">SUÁREZ</text><text text-anchor="middle" class="details" transform="translate(9, 49)">*</text><text class="details" transform="translate(15, 49)"> 27 Jun 1973 </text><text text-anchor="middle" class="details" transform="translate(9, 63)"/><text class="details" transform="translate(15, 63)">Madrid (SPAIN)</text><text class="id" transform="translate(9, 81)">I111</text><text class="details sex" text-anchor="end" transform="translate(96.2421875, 81)">♂</text><rect rx="5" fill-opacity="0" class="border" width="101.2421875" height="86"/></g><g class="family" transform="translate(102.8046875, 86)"/></g></g><g class="node generation0" transform="translate(107.7109375, 239)" style="opacity: 1;"><g class="detailed"><g class="indi" transform=""><rect rx="5" stroke-width="0" class="background bygeneration female" width="102.8046875" height="86"/><clipPath id="clip-I103"><rect rx="5" width="102.8046875" height="86"/></clipPath><text text-anchor="middle" class="name" transform="translate(51.40234375, 17)">Lucía</text><text text-anchor="middle" class="name" transform="translate(51.40234375, 33)">VERA HERVÁS</text><text text-anchor="middle" class="details" transform="translate(9, 49)">*</text><text class="details" transform="translate(15, 49)"> 8 May 1985 </text><text text-anchor="middle" class="details" transform="translate(9, 63)"/><text class="details" transform="translate(15, 63)">Madrid (SPAIN)</text><text class="id" transform="translate(9, 81)">I103</text><text class="details sex" text-anchor="end" transform="translate(97.8046875, 81)">♀</text><rect rx="5" fill-opacity="0" class="border" width="102.8046875" height="86"/></g><g class="indi" transform="translate(102.8046875, 0)"><rect rx="5" stroke-width="0" class="background bygeneration male" width="128.5859375" height="86"/><clipPath id="clip-I104"><rect rx="5" width="128.5859375" height="86"/></clipPath><text text-anchor="middle" class="name" transform="translate(64.29296875, 17)">José</text><text text-anchor="middle" class="name" transform="translate(64.29296875, 33)">CALVO MARTÍNEZ</text><text text-anchor="middle" class="details" transform="translate(9, 49)">*</text><text class="details" transform="translate(15, 49)"> 3 Jun 1982 </text><text text-anchor="middle" class="details" transform="translate(9, 63)"/><text class="details" transform="translate(15, 63)">Ciudad Real (SPAIN)</text><text class="id" transform="translate(9, 81)">I104</text><text class="details sex" text-anchor="end" transform="translate(123.5859375, 81)">♂</text><rect rx="5" fill-opacity="0" class="border" width="128.5859375" height="86"/></g><g class="family" transform="translate(102.8046875, 86)"/></g></g><g class="node generation0" transform="translate(401.70703125, 239)" style="opacity: 1;"><g class="detailed"><g class="indi" transform=""><rect rx="5" stroke-width="0" class="background bygeneration female" width="80.796875" height="86"/><clipPath id="clip-I366"><rect rx="5" width="80.796875" height="86"/></clipPath><text text-anchor="middle" class="name" transform="translate(40.3984375, 17)">Yana</text><text text-anchor="middle" class="name" transform="translate(40.3984375, 33)">HERVÁS</text><text text-anchor="middle" class="details" transform="translate(9, 49)">*</text><text class="details" transform="translate(15, 49)"> 27 Jul 2004 </text><text text-anchor="middle" class="details" transform="translate(9, 63)"/><text class="details" transform="translate(15, 63)">RUSSIA</text><text class="id" transform="translate(9, 81)">I366</text><text class="details sex" text-anchor="end" transform="translate(75.796875, 81)">♀</text><rect rx="5" fill-opacity="0" class="border" width="80.796875" height="86"/></g></g></g><g class="node generation1" transform="translate(-535.8828125, 359)" style="opacity: 1;"><g class="detailed"><g class="indi" transform=""><rect rx="5" stroke-width="0" class="background bygeneration female" width="110.625" height="86"/><clipPath id="clip-I98"><rect rx="5" width="110.625" height="86"/></clipPath><text text-anchor="middle" class="name" transform="translate(55.3125, 17)">Carlota</text><text text-anchor="middle" class="name" transform="translate(55.3125, 33)">LUQUE GARCÍA</text><text text-anchor="middle" class="details" transform="translate(9, 49)">*</text><text class="details" transform="translate(15, 49)"> 10 Nov 2005 </text><text text-anchor="middle" class="details" transform="translate(9, 63)"/><text class="details" transform="translate(15, 63)">Madrid (SPAIN)</text><text class="id" transform="translate(9, 81)">I98</text><text class="details sex" text-anchor="end" transform="translate(105.625, 81)">♀</text><rect rx="5" fill-opacity="0" class="border" width="110.625" height="86"/></g></g></g><g class="node generation1" transform="translate(-410.2578125, 359)" style="opacity: 1;"><g class="detailed"><g class="indi" transform=""><rect rx="5" stroke-width="0" class="background bygeneration male" width="110.625" height="86"/><clipPath id="clip-I99"><rect rx="5" width="110.625" height="86"/></clipPath><text text-anchor="middle" class="name" transform="translate(55.3125, 17)">Daniel</text><text text-anchor="middle" class="name" transform="translate(55.3125, 33)">LUQUE GARCÍA</text><text text-anchor="middle" class="details" transform="translate(9, 49)">*</text><text class="details" transform="translate(15, 49)"> 11 Nov 2007 </text><text text-anchor="middle" class="details" transform="translate(9, 63)"/><text class="details" transform="translate(15, 63)">Madrid (SPAIN)</text><text class="id" transform="translate(9, 81)">I99</text><text class="details sex" text-anchor="end" transform="translate(105.625, 81)">♂</text><rect rx="5" fill-opacity="0" class="border" width="110.625" height="86"/></g></g></g><g class="node generation1" transform="translate(-118.453125, 359)" style="opacity: 1;"><g class="detailed"><g class="indi" transform=""><rect rx="5" stroke-width="0" class="background bygeneration male" width="101.640625" height="86"/><clipPath id="clip-I112"><rect rx="5" width="101.640625" height="86"/></clipPath><text text-anchor="middle" class="name" transform="translate(50.8203125, 17)">Diego</text><text text-anchor="middle" class="name" transform="translate(50.8203125, 33)">SUÁREZ VERA</text><text text-anchor="middle" class="details" transform="translate(9, 49)">*</text><text class="details" transform="translate(15, 49)"> 20 Jun 2014 </text><text text-anchor="middle" class="details" transform="translate(9, 63)"/><text class="details" transform="translate(15, 63)">Madrid (SPAIN)</text><text class="id" transform="translate(9, 81)">I112</text><text class="details sex" text-anchor="end" transform="translate(96.640625, 81)">♂</text><rect rx="5" fill-opacity="0" class="border" width="101.640625" height="86"/></g></g></g><g class="node generation1" transform="translate(-1.8125, 359)" style="opacity: 1;"><g class="detailed"><g class="indi" transform=""><rect rx="5" stroke-width="0" class="background bygeneration female" width="101.640625" height="86"/><clipPath id="clip-I113"><rect rx="5" width="101.640625" height="86"/></clipPath><text text-anchor="middle" class="name" transform="translate(50.8203125, 17)">Daniela</text><text text-anchor="middle" class="name" transform="translate(50.8203125, 33)">SUÁREZ VERA</text><text text-anchor="middle" class="details" transform="translate(9, 49)">*</text><text class="details" transform="translate(15, 49)"> 5 Nov 2018 </text><text text-anchor="middle" class="details" transform="translate(9, 63)"/><text class="details" transform="translate(15, 63)">Madrid (SPAIN)</text><text class="id" transform="translate(9, 81)">I113</text><text class="details sex" text-anchor="end" transform="translate(96.640625, 81)">♀</text><rect rx="5" fill-opacity="0" class="border" width="101.640625" height="86"/></g></g></g><g class="node generation1" transform="translate(116.25, 359)" style="opacity: 1;"><g class="detailed"><g class="indi" transform=""><rect rx="5" stroke-width="0" class="background bygeneration female" width="99.65625" height="86"/><clipPath id="clip-I105"><rect rx="5" width="99.65625" height="86"/></clipPath><text text-anchor="middle" class="name" transform="translate(49.828125, 17)">Paula</text><text text-anchor="middle" class="name" transform="translate(49.828125, 33)">CALVO VERA</text><text text-anchor="middle" class="details" transform="translate(9, 49)">*</text><text class="details" transform="translate(15, 49)"> 6 Jul 2021 </text><text text-anchor="middle" class="details" transform="translate(9, 63)"/><text class="details" transform="translate(15, 63)">Madrid (SPAIN)</text><text class="id" transform="translate(9, 81)">I105</text><text class="details sex" text-anchor="end" transform="translate(94.65625, 81)">♀</text><rect rx="5" fill-opacity="0" class="border" width="99.65625" height="86"/></g></g></g><g class="node generation1" transform="translate(230.90625, 359)" style="opacity: 1;"><g class="detailed"><g class="indi" transform=""><rect rx="5" stroke-width="0" class="background bygeneration male" width="99.65625" height="86"/><clipPath id="clip-I106"><rect rx="5" width="99.65625" height="86"/></clipPath><text text-anchor="middle" class="name" transform="translate(49.828125, 17)">David</text><text text-anchor="middle" class="name" transform="translate(49.828125, 33)">CALVO VERA</text><text text-anchor="middle" class="details" transform="translate(9, 49)">*</text><text class="details" transform="translate(15, 49)"> 29 Oct 2023 </text><text text-anchor="middle" class="details" transform="translate(9, 63)"/><text class="details" transform="translate(15, 63)">Madrid (SPAIN)</text><text class="id" transform="translate(9, 81)">I106</text><text class="details sex" text-anchor="end" transform="translate(94.65625, 81)">♂</text><rect rx="5" fill-opacity="0" class="border" width="99.65625" height="86"/></g></g></g></g></g></svg>