<svg xmlns="http://www.w3.org/2000/svg" id="chartSvg" width="1015.0000000000001" height="638"><g id="chart"><style>
.detailed text {
  font-family: verdana, arial, sans-serif;
  font-size: 12px;
}

.detailed .name {
  font-weight: bold;
}

.link {
  fill: none;
  stroke: #000;
  stroke-width: 1px;
}

.additional-marriage {
  stroke-dasharray: 2;
}

.detailed rect {
  stroke: black;
}

.detailed {
  stroke-width: 2px;
}

.detailed .details {
  font-size: 10px;
}

.detailed .id {
  font-size: 10px;
  font-style: italic;
}

.detailed rect.nocolor {
  fill: #ffffff;
}

.detailed rect.bysex {
  fill: #eeeeee;
}

.detailed rect.bysex.male {
  fill: #dbffff;
}

.detailed rect.bysex.female {
  fill: #ffdbed;
}

.detailed rect.bygeneration {
  fill: #ffffdd;
}

.generation-11 .detailed rect.bygeneration, .generation1 .detailed rect.bygeneration {
  fill: #edffdb;
}

.generation-10 .detailed rect.bygeneration, .generation2 .detailed rect.bygeneration {
  fill: #dbffdb;
}

.generation-9 .detailed rect.bygeneration, .generation3 .detailed rect.bygeneration {
  fill: #dbffed;
}

.generation-8 .detailed rect.bygeneration, .generation4 .detailed rect.bygeneration {
  fill: #dbffff;
}

.generation-7 .detailed rect.bygeneration, .generation5 .detailed rect.bygeneration {
  fill: #dbedff;
}

.generation-6 .detailed rect.bygeneration, .generation6 .detailed rect.bygeneration {
  fill: #dbdbff;
}

.generation-5 .detailed rect.bygeneration, .generation7 .detailed rect.bygeneration {
  fill: #eddbff;
}

.generation-4 .detailed rect.bygeneration, .generation8 .detailed rect.bygeneration {
  fill: #ffdbff;
}

.generation-3 .detailed rect.bygeneration, .generation9 .detailed rect.bygeneration {
  fill: #ffdbed;
}

.generation-2 .detailed rect.bygeneration, .generation10 .detailed rect.bygeneration {
  fill: #ffdbdb;
}

.generation-1 .detailed rect.bygeneration, .generation11 .detailed rect.bygeneration {
  fill: #ffeddb;
}
.expander {
  fill: white;
  stroke: black;
  stroke-width: 2px;
  cursor: pointer;
}</style><g transform="translate(507.5, 185)"><path class="link" d="M 0 -127&#10;            L 0 -67,&#10;              79.80859375 -67,&#10;              79.80859375 0" style="opacity: 1;"/><path class="link" d="M -10.4765625 0&#10;            L -10.4765625 67,&#10;              -410.46484375 67,&#10;              -410.46484375 141" style="opacity: 1;"/><path class="link" d="M -10.4765625 0&#10;            L -10.4765625 67,&#10;              -131.73828125 67,&#10;              -131.73828125 141" style="opacity: 1;"/><path class="link" d="M -10.4765625 0&#10;            L -10.4765625 67,&#10;              47.33203125 67,&#10;              47.33203125 141" style="opacity: 1;"/><path class="link" d="M -10.4765625 0&#10;            L -10.4765625 67,&#10;              331.94921875 67,&#10;              331.94921875 141" style="opacity: 1;"/><path class="link" d="M -328.4296875 141&#10;            L -328.4296875 215,&#10;              -400.71875 215,&#10;              -400.71875 275" style="opacity: 1;"/><path class="link" d="M 129.3671875 141&#10;            L 129.3671875 215,&#10;              -46.474609375 215,&#10;              -46.474609375 275" style="opacity: 1;"/><path class="link" d="M 129.3671875 141&#10;            L 129.3671875 215,&#10;              168.662109375 215,&#10;              168.662109375 275" style="opacity: 1;"/><path class="link" d="M 413.984375 141&#10;            L 413.984375 215,&#10;              371.20703125 215,&#10;              371.20703125 275" style="opacity: 1;"/><path class="link" d="M -340.85546875 275&#10;            L -340.85546875 335,&#10;              -411.421875 335,&#10;              -411.421875 395" style="opacity: 1;"/><path class="link" d="M -340.85546875 275&#10;            L -340.85546875 335,&#10;              -309.8515625 335,&#10;              -309.8515625 395" style="opacity: 1;"/><path class="link" d="M 4.927734375 275&#10;            L 4.927734375 335,&#10;              -51.892578125 335,&#10;              -51.892578125 395" style="opacity: 1;"/><path class="link" d="M 4.927734375 275&#10;            L 4.927734375 335,&#10;              45.408203125 335,&#10;              45.408203125 395" style="opacity: 1;"/><path class="link" d="M 220.064453125 275&#10;            L 220.064453125 335,&#10;              150.345703125 335,&#10;              150.345703125 395" style="opacity: 1;"/><path class="link" d="M 220.064453125 275&#10;            L 220.064453125 335,&#10;              265.001953125 335,&#10;              265.001953125 395" style="opacity: 1;"/><g class="node generation-2" transform="translate(-170.09375, -50)" style="opacity: 1;"><g class="detailed"><g class="indi" transform="translate(159.6171875, 0)"><rect rx="5" stroke-width="0" class="background bygeneration female" width="180.5703125" height="100"/><clipPath id="clip-I28"><rect rx="5" width="180.5703125" height="100"/></clipPath><text text-anchor="middle" class="name" transform="translate(90.28515625, 17)">Faustina</text><text text-anchor="middle" class="name" transform="translate(90.28515625, 33)">DE LAS HERAS PRADALES</text><text text-anchor="middle" class="details" transform="translate(9, 49)">*</text><text class="details" transform="translate(15, 49)"> 22 Nov 1917 </text><text text-anchor="middle" class="details" transform="translate(9, 63)"/><text class="details" transform="translate(15, 63)">Fuentecén, Burgos (SPAIN)</text><text text-anchor="middle" class="details" transform="translate(9, 77)">+</text><text class="details" transform="translate(15, 77)"> 29 Jan 2005 </text><text class="id" transform="translate(9, 95)">I28</text><text class="details sex" text-anchor="end" transform="translate(175.5703125, 95)">♀</text><rect rx="5" fill-opacity="0" class="border" width="180.5703125" height="100"/></g><g class="indi" transform="translate(0, 0)"><rect rx="5" stroke-width="0" class="background bygeneration male" width="159.6171875" height="100"/><clipPath id="clip-I90"><rect rx="5" width="159.6171875" height="100"/></clipPath><text text-anchor="middle" class="name" transform="translate(79.80859375, 17)">Conceso</text><text text-anchor="middle" class="name" transform="translate(79.80859375, 33)">HERVÁS</text><text text-anchor="middle" class="details" transform="translate(9, 49)">*</text><text class="details" transform="translate(15, 49)"> 8 Apr 1918 </text><text text-anchor="middle" class="details" transform="translate(9, 63)"/><text class="details" transform="translate(15, 63)">Fuentecén, Burgos (SPAIN)</text><text text-anchor="middle" class="details" transform="translate(9, 77)">+</text><text class="details" transform="translate(15, 77)"> 12 Jan 2014 </text><text class="id" transform="translate(9, 95)">I90</text><text class="details sex" text-anchor="end" transform="translate(154.6171875, 95)">♂</text><rect rx="5" fill-opacity="0" class="border" width="159.6171875" height="100"/></g><g class="family" transform="translate(159.6171875, 100)"/></g></g><g class="node generation-3" transform="translate(-151.171875, -170)"><g class="detailed"><g class="indi" transform="translate(0, 0)"><rect rx="5" stroke-width="0" class="background bygeneration male" width="151.171875" height="86"/><clipPath id="clip-I21"><rect rx="5" width="151.171875" height="86"/></clipPath><text text-anchor="middle" class="name" transform="translate(75.5859375, 17)">Francisco (Paco)</text><text text-anchor="middle" class="name" transform="translate(75.5859375, 33)">DE LAS HERAS</text><text text-anchor="middle" class="details" transform="translate(9, 49)">+</text><text class="details" transform="translate(15, 49)"> 10 Sep 1964 </text><text text-anchor="middle" class="details" transform="translate(9, 63)"/><text class="details" transform="translate(15, 63)">Fuentecén, Burgos, Spain</text><text class="id" transform="translate(9, 81)">I21</text><text class="details sex" text-anchor="end" transform="translate(146.171875, 81)">♂</text><rect rx="5" fill-opacity="0" class="border" width="151.171875" height="86"/></g><g class="indi" transform="translate(151.171875, 0)"><rect rx="5" stroke-width="0" class="background bygeneration female" width="151.171875" height="86"/><clipPath id="clip-I22"><rect rx="5" width="151.171875" height="86"/></clipPath><text text-anchor="middle" class="name" transform="translate(75.5859375, 17)">Felisa</text><text text-anchor="middle" class="name" transform="translate(75.5859375, 33)">PRADALES</text><text text-anchor="middle" class="details" transform="translate(9, 49)">+</text><text class="details" transform="translate(15, 49)">   1919 </text><text text-anchor="middle" class="details" transform="translate(9, 63)"/><text class="details" transform="translate(15, 63)">Fuentecén, Burgos, Spain</text><text class="id" transform="translate(9, 81)">I22</text><text class="details sex" text-anchor="end" transform="translate(146.171875, 81)">♀</text><rect rx="5" fill-opacity="0" class="border" width="151.171875" height="86"/></g><g class="family" transform="translate(151.171875, 86)"/></g></g><g class="node generation-1" transform="translate(-492.5, 84)" style="opacity: 1;"><g class="detailed"><g class="indi" transform=""><rect rx="5" stroke-width="0" class="background bygeneration female" width="164.0703125" height="114"/><clipPath id="clip-I91"><rect rx="5" width="164.0703125" height="114"/></clipPath><text text-anchor="middle" class="name" transform="translate(82.03515625, 17)">Amparo</text><text text-anchor="middle" class="name" transform="translate(82.03515625, 33)">HERVÁS DE LAS HERAS</text><text text-anchor="middle" class="details" transform="translate(9, 49)">*</text><text class="details" transform="translate(15, 49)"> 7 Feb 1946 </text><text text-anchor="middle" class="details" transform="translate(9, 63)"/><text class="details" transform="translate(15, 63)">Fuentecén, Burgos (SPAIN)</text><text text-anchor="middle" class="details" transform="translate(9, 77)">+</text><text class="details" transform="translate(15, 77)"> 14 Apr 2023 </text><text class="id" transform="translate(9, 109)">I91</text><text class="details sex" text-anchor="end" transform="translate(159.0703125, 109)">♀</text><rect rx="5" fill-opacity="0" class="border" width="164.0703125" height="114"/></g><g class="indi" transform="translate(164.0703125, 0)"><rect rx="5" stroke-width="0" class="background bygeneration male" width="99.65625" height="114"/><clipPath id="clip-I95"><rect rx="5" width="99.65625" height="114"/></clipPath><text text-anchor="middle" class="name" transform="translate(49.828125, 17)">Daniel</text><text text-anchor="middle" class="name" transform="translate(49.828125, 33)">GARCÍA</text><text text-anchor="middle" class="details" transform="translate(9, 49)">*</text><text class="details" transform="translate(15, 49)"> 18 Feb 1948 </text><text text-anchor="middle" class="details" transform="translate(9, 63)"/><text class="details" transform="translate(15, 63)">Madrid (SPAIN)</text><text text-anchor="middle" class="details" transform="translate(9, 77)">+</text><text class="details" transform="translate(15, 77)"> 5 Sep 2023 </text><text text-anchor="middle" class="details" transform="translate(9, 91)"/><text class="details" transform="translate(15, 91)">Madrid (SPAIN)</text><text class="id" transform="translate(9, 109)">I95</text><text class="details sex" text-anchor="end" transform="translate(94.65625, 109)">♂</text><rect rx="5" fill-opacity="0" class="border" width="99.65625" height="114"/></g><g class="family" transform="translate(164.0703125, 114)"/></g></g><g class="node generation-1" transform="translate(-213.7734375, 84)" style="opacity: 1;"><g class="detailed"><g class="indi" transform=""><rect rx="5" stroke-width="0" class="background bygeneration female" width="164.0703125" height="114"/><clipPath id="clip-I92"><rect rx="5" width="164.0703125" height="114"/></clipPath><text text-anchor="middle" class="name" transform="translate(82.03515625, 17)">Celia</text><text text-anchor="middle" class="name" transform="translate(82.03515625, 33)">HERVÁS DE LAS HERAS</text><text text-anchor="middle" class="details" transform="translate(9, 49)">*</text><text class="details" transform="translate(15, 49)">  02/1047</text><text text-anchor="middle" class="details" transform="translate(9, 63)"/><text class="details" transform="translate(15, 63)">Fuentecén, Burgos (SPAIN)</text><text text-anchor="middle" class="details" transform="translate(9, 77)">+</text><text class="details" transform="translate(15, 77)">  07/1947</text><text text-anchor="middle" class="details" transform="translate(9, 91)"/><text class="details" transform="translate(15, 91)">Fuentecén, Burgos (SPAIN)</text><text class="id" transform="translate(9, 109)">I92</text><text class="details sex" text-anchor="end" transform="translate(159.0703125, 109)">♀</text><rect rx="5" fill-opacity="0" class="border" width="164.0703125" height="114"/></g></g></g><g class="node generation-1" transform="translate(-34.703125, 84)" style="opacity: 1;"><g class="detailed"><g class="indi" transform=""><rect rx="5" stroke-width="0" class="background bygeneration female" width="164.0703125" height="114"/><clipPath id="clip-I93"><rect rx="5" width="164.0703125" height="114"/></clipPath><text text-anchor="middle" class="name" transform="translate(82.03515625, 17)">Raquel</text><text text-anchor="middle" class="name" transform="translate(82.03515625, 33)">HERVÁS DE LAS HERAS</text><text text-anchor="middle" class="details" transform="translate(9, 49)">*</text><text class="details" transform="translate(15, 49)"> 18 Aug 1948 </text><text text-anchor="middle" class="details" transform="translate(9, 63)"/><text class="details" transform="translate(15, 63)">Fuentecén, Burgos (SPAIN)</text><text class="id" transform="translate(9, 109)">I93</text><text class="details sex" text-anchor="end" transform="translate(159.0703125, 109)">♀</text><rect rx="5" fill-opacity="0" class="border" width="164.0703125" height="114"/></g><g class="indi" transform="translate(164.0703125, 0)"><rect rx="5" stroke-width="0" class="background bygeneration male" width="105.546875" height="114"/><clipPath id="clip-I101"><rect rx="5" width="105.546875" height="114"/></clipPath><text text-anchor="middle" class="name" transform="translate(52.7734375, 17)">Enrique</text><text text-anchor="middle" class="name" transform="translate(52.7734375, 33)">VERA TEJEIRO</text><text text-anchor="middle" class="details" transform="translate(9, 49)">*</text><text class="details" transform="translate(15, 49)"> 9 Mar 1948 </text><text text-anchor="middle" class="details" transform="translate(9, 63)"/><text class="details" transform="translate(15, 63)">Madrid (SPAIN)</text><text class="id" transform="translate(9, 109)">I101</text><text class="details sex" text-anchor="end" transform="translate(100.546875, 109)">♂</text><rect rx="5" fill-opacity="0" class="border" width="105.546875" height="114"/></g><g class="family" transform="translate(164.0703125, 114)"/></g></g><g class="node generation-1" transform="translate(249.9140625, 84)" style="opacity: 1;"><g class="detailed"><g class="indi" transform=""><rect rx="5" stroke-width="0" class="background bygeneration male" width="164.0703125" height="114"/><clipPath id="clip-I94"><rect rx="5" width="164.0703125" height="114"/></clipPath><text text-anchor="middle" class="name" transform="translate(82.03515625, 17)">Juan</text><text text-anchor="middle" class="name" transform="translate(82.03515625, 33)">HERVÁS DE LAS HERAS</text><text text-anchor="middle" class="details" transform="translate(9, 49)">*</text><text class="details" transform="translate(15, 49)"> 20 Dec 1962 </text><text text-anchor="middle" class="details" transform="translate(9, 63)"/><text class="details" transform="translate(15, 63)">Fuentecén, Burgos (SPAIN)</text><text class="id" transform="translate(9, 109)">I94</text><text class="details sex" text-anchor="end" transform="translate(159.0703125, 109)">♂</text><rect rx="5" fill-opacity="0" class="border" width="164.0703125" height="114"/></g><g class="indi" transform="translate(164.0703125, 0)"><rect rx="5" stroke-width="0" class="background bygeneration female" width="78.515625" height="114"/><clipPath id="clip-I100"><rect rx="5" width="78.515625" height="114"/></clipPath><text text-anchor="middle" class="name" transform="translate(39.2578125, 17)">Antonia</text><text text-anchor="middle" class="name" transform="translate(39.2578125, 33)"/><text text-anchor="middle" class="details" transform="translate(9, 49)">*</text><text class="details" transform="translate(15, 49)"> 2 Feb 1960 </text><text class="id" transform="translate(9, 109)">I100</text><text class="details sex" text-anchor="end" transform="translate(73.515625, 109)">♀</text><rect rx="5" fill-opacity="0" class="border" width="78.515625" height="114"/></g><g class="family" transform="translate(164.0703125, 114)"/></g></g><g class="node generation0" transform="translate(-460.58203125, 232)" style="opacity: 1;"><g class="detailed"><g class="indi" transform=""><rect rx="5" stroke-width="0" class="background bygeneration female" width="119.7265625" height="86"/><clipPath id="clip-I96"><rect rx="5" width="119.7265625" height="86"/></clipPath><text text-anchor="middle" class="name" transform="translate(59.86328125, 17)">Almudena</text><text text-anchor="middle" class="name" transform="translate(59.86328125, 33)">GARCÍA HERVÁS</text><text text-anchor="middle" class="details" transform="translate(9, 49)">*</text><text class="details" transform="translate(15, 49)"> 19 Apr 1979 </text><text text-anchor="middle" class="details" transform="translate(9, 63)"/><text class="details" transform="translate(15, 63)">Madrid (SPAIN)</text><text class="id" transform="translate(9, 81)">I96</text><text class="details sex" text-anchor="end" transform="translate(114.7265625, 81)">♀</text><rect rx="5" fill-opacity="0" class="border" width="119.7265625" height="86"/></g><g class="indi" transform="translate(119.7265625, 0)"><rect rx="5" stroke-width="0" class="background bygeneration male" width="80.1640625" height="86"/><clipPath id="clip-I97"><rect rx="5" width="80.1640625" height="86"/></clipPath><text text-anchor="middle" class="name" transform="translate(40.08203125, 17)">David</text><text text-anchor="middle" class="name" transform="translate(40.08203125, 33)"/><text text-anchor="middle" class="details" transform="translate(9, 49)">*</text><text class="details" transform="translate(15, 49)"> 1 Aug 1975 </text><text class="id" transform="translate(9, 81)">I97</text><text class="details sex" text-anchor="end" transform="translate(75.1640625, 81)">♂</text><rect rx="5" fill-opacity="0" class="border" width="80.1640625" height="86"/></g><g class="family" transform="translate(119.7265625, 86)"/></g></g><g class="node generation0" transform="translate(-97.876953125, 232)" style="opacity: 1;"><g class="detailed"><g class="indi" transform=""><rect rx="5" stroke-width="0" class="background bygeneration female" width="102.8046875" height="86"/><clipPath id="clip-I102"><rect rx="5" width="102.8046875" height="86"/></clipPath><text text-anchor="middle" class="name" transform="translate(51.40234375, 17)">María</text><text text-anchor="middle" class="name" transform="translate(51.40234375, 33)">VERA HERVÁS</text><text text-anchor="middle" class="details" transform="translate(9, 49)">*</text><text class="details" transform="translate(15, 49)"> 20 Jun 1976 </text><text text-anchor="middle" class="details" transform="translate(9, 63)"/><text class="details" transform="translate(15, 63)">Madrid (SPAIN)</text><text class="id" transform="translate(9, 81)">I102</text><text class="details sex" text-anchor="end" transform="translate(97.8046875, 81)">♀</text><rect rx="5" fill-opacity="0" class="border" width="102.8046875" height="86"/></g><g class="indi" transform="translate(102.8046875, 0)"><rect rx="5" stroke-width="0" class="background bygeneration male" width="84.3828125" height="86"/><clipPath id="clip-I111"><rect rx="5" width="84.3828125" height="86"/></clipPath><text text-anchor="middle" class="name" transform="translate(42.19140625, 17)">Enrique</text><text text-anchor="middle" class="name" transform="translate(42.19140625, 33)"/><text text-anchor="middle" class="details" transform="translate(9, 49)">*</text><text class="details" transform="translate(15, 49)"> 27 Jun 1973 </text><text class="id" transform="translate(9, 81)">I111</text><text class="details sex" text-anchor="end" transform="translate(79.3828125, 81)">♂</text><rect rx="5" fill-opacity="0" class="border" width="84.3828125" height="86"/></g><g class="family" transform="translate(102.8046875, 86)"/></g></g><g class="node generation0" transform="translate(117.259765625, 232)" style="opacity: 1;"><g class="detailed"><g class="indi" transform=""><rect rx="5" stroke-width="0" class="background bygeneration female" width="102.8046875" height="86"/><clipPath id="clip-I103"><rect rx="5" width="102.8046875" height="86"/></clipPath><text text-anchor="middle" class="name" transform="translate(51.40234375, 17)">Lucía</text><text text-anchor="middle" class="name" transform="translate(51.40234375, 33)">VERA HERVÁS</text><text text-anchor="middle" class="details" transform="translate(9, 49)">*</text><text class="details" transform="translate(15, 49)"> 10 May 1985 </text><text text-anchor="middle" class="details" transform="translate(9, 63)"/><text class="details" transform="translate(15, 63)">Madrid (SPAIN)</text><text class="id" transform="translate(9, 81)">I103</text><text class="details sex" text-anchor="end" transform="translate(97.8046875, 81)">♀</text><rect rx="5" fill-opacity="0" class="border" width="102.8046875" height="86"/></g><g class="indi" transform="translate(102.8046875, 0)"><rect rx="5" stroke-width="0" class="background bygeneration male" width="78.0234375" height="86"/><clipPath id="clip-I104"><rect rx="5" width="78.0234375" height="86"/></clipPath><text text-anchor="middle" class="name" transform="translate(39.01171875, 17)">José</text><text text-anchor="middle" class="name" transform="translate(39.01171875, 33)"/><text text-anchor="middle" class="details" transform="translate(9, 49)">*</text><text class="details" transform="translate(15, 49)"> 3 Jun 1982 </text><text class="id" transform="translate(9, 81)">I104</text><text class="details sex" text-anchor="end" transform="translate(73.0234375, 81)">♂</text><rect rx="5" fill-opacity="0" class="border" width="78.0234375" height="86"/></g><g class="family" transform="translate(102.8046875, 86)"/></g></g><g class="node generation0" transform="translate(330.80859375, 232)" style="opacity: 1;"><g class="detailed"><g class="indi" transform=""><rect rx="5" stroke-width="0" class="background bygeneration female" width="80.796875" height="86"/><clipPath id="clip-I366"><rect rx="5" width="80.796875" height="86"/></clipPath><text text-anchor="middle" class="name" transform="translate(40.3984375, 17)">Yana</text><text text-anchor="middle" class="name" transform="translate(40.3984375, 33)">HERVÁS</text><text text-anchor="middle" class="details" transform="translate(9, 49)">*</text><text class="details" transform="translate(15, 49)"> 27 Jul 2004 </text><text class="id" transform="translate(9, 81)">I366</text><text class="details sex" text-anchor="end" transform="translate(75.796875, 81)">♀</text><rect rx="5" fill-opacity="0" class="border" width="80.796875" height="86"/></g></g></g><g class="node generation1" transform="translate(-454.70703125, 352)" style="opacity: 1;"><g class="detailed"><g class="indi" transform=""><rect rx="5" stroke-width="0" class="background bygeneration female" width="86.5703125" height="86"/><clipPath id="clip-I98"><rect rx="5" width="86.5703125" height="86"/></clipPath><text text-anchor="middle" class="name" transform="translate(43.28515625, 17)">Carlota</text><text text-anchor="middle" class="name" transform="translate(43.28515625, 33)"/><text text-anchor="middle" class="details" transform="translate(9, 49)">*</text><text class="details" transform="translate(15, 49)"> 10 Nov 2005 </text><text class="id" transform="translate(9, 81)">I98</text><text class="details sex" text-anchor="end" transform="translate(81.5703125, 81)">♀</text><rect rx="5" fill-opacity="0" class="border" width="86.5703125" height="86"/></g></g></g><g class="node generation1" transform="translate(-353.13671875, 352)" style="opacity: 1;"><g class="detailed"><g class="indi" transform=""><rect rx="5" stroke-width="0" class="background bygeneration male" width="86.5703125" height="86"/><clipPath id="clip-I99"><rect rx="5" width="86.5703125" height="86"/></clipPath><text text-anchor="middle" class="name" transform="translate(43.28515625, 17)">Daniel</text><text text-anchor="middle" class="name" transform="translate(43.28515625, 33)"/><text text-anchor="middle" class="details" transform="translate(9, 49)">*</text><text class="details" transform="translate(15, 49)"> 11 Nov 2007 </text><text class="id" transform="translate(9, 81)">I99</text><text class="details sex" text-anchor="end" transform="translate(81.5703125, 81)">♂</text><rect rx="5" fill-opacity="0" class="border" width="86.5703125" height="86"/></g></g></g><g class="node generation1" transform="translate(-94.083984375, 352)" style="opacity: 1;"><g class="detailed"><g class="indi" transform=""><rect rx="5" stroke-width="0" class="background bygeneration female" width="84.3828125" height="86"/><clipPath id="clip-I113"><rect rx="5" width="84.3828125" height="86"/></clipPath><text text-anchor="middle" class="name" transform="translate(42.19140625, 17)">Daniela</text><text text-anchor="middle" class="name" transform="translate(42.19140625, 33)"/><text text-anchor="middle" class="details" transform="translate(9, 49)">*</text><text class="details" transform="translate(15, 49)"> 20 Jun 2014 </text><text class="id" transform="translate(9, 81)">I113</text><text class="details sex" text-anchor="end" transform="translate(79.3828125, 81)">♀</text><rect rx="5" fill-opacity="0" class="border" width="84.3828125" height="86"/></g></g></g><g class="node generation1" transform="translate(5.298828125, 352)" style="opacity: 1;"><g class="detailed"><g class="indi" transform=""><rect rx="5" stroke-width="0" class="background bygeneration male" width="80.21875" height="86"/><clipPath id="clip-I112"><rect rx="5" width="80.21875" height="86"/></clipPath><text text-anchor="middle" class="name" transform="translate(40.109375, 17)">Diego</text><text text-anchor="middle" class="name" transform="translate(40.109375, 33)"/><text text-anchor="middle" class="details" transform="translate(9, 49)">*</text><text class="details" transform="translate(15, 49)"> 5 Nov 2018 </text><text class="id" transform="translate(9, 81)">I112</text><text class="details sex" text-anchor="end" transform="translate(75.21875, 81)">♂</text><rect rx="5" fill-opacity="0" class="border" width="80.21875" height="86"/></g></g></g><g class="node generation1" transform="translate(100.517578125, 352)" style="opacity: 1;"><g class="detailed"><g class="indi" transform=""><rect rx="5" stroke-width="0" class="background bygeneration female" width="99.65625" height="86"/><clipPath id="clip-I105"><rect rx="5" width="99.65625" height="86"/></clipPath><text text-anchor="middle" class="name" transform="translate(49.828125, 17)">Paula</text><text text-anchor="middle" class="name" transform="translate(49.828125, 33)"/><text text-anchor="middle" class="details" transform="translate(9, 49)">*</text><text class="details" transform="translate(15, 49)"> 6 Jul 2021 </text><text text-anchor="middle" class="details" transform="translate(9, 63)"/><text class="details" transform="translate(15, 63)">Madrid (SPAIN)</text><text class="id" transform="translate(9, 81)">I105</text><text class="details sex" text-anchor="end" transform="translate(94.65625, 81)">♀</text><rect rx="5" fill-opacity="0" class="border" width="99.65625" height="86"/></g></g></g><g class="node generation1" transform="translate(215.173828125, 352)" style="opacity: 1;"><g class="detailed"><g class="indi" transform=""><rect rx="5" stroke-width="0" class="background bygeneration male" width="99.65625" height="86"/><clipPath id="clip-I106"><rect rx="5" width="99.65625" height="86"/></clipPath><text text-anchor="middle" class="name" transform="translate(49.828125, 17)">David</text><text text-anchor="middle" class="name" transform="translate(49.828125, 33)"/><text text-anchor="middle" class="details" transform="translate(9, 49)">*</text><text class="details" transform="translate(15, 49)"> 29 Oct 2023 </text><text text-anchor="middle" class="details" transform="translate(9, 63)"/><text class="details" transform="translate(15, 63)">Madrid (SPAIN)</text><text class="id" transform="translate(9, 81)">I106</text><text class="details sex" text-anchor="end" transform="translate(94.65625, 81)">♂</text><rect rx="5" fill-opacity="0" class="border" width="99.65625" height="86"/></g></g></g></g></g></svg>