<svg xmlns="http://www.w3.org/2000/svg" id="chartSvg" width="2391.453125" height="680"><g id="chart"><style>
.detailed text {
  font-family: verdana, arial, sans-serif;
  font-size: 12px;
}

.detailed .name {
  font-weight: bold;
}

.link {
  fill: none;
  stroke: #000;
  stroke-width: 1px;
}

.additional-marriage {
  stroke-dasharray: 2;
}

.detailed rect {
  stroke: black;
}

.detailed {
  stroke-width: 2px;
}

.detailed .details {
  font-size: 10px;
}

.detailed .id {
  font-size: 10px;
  font-style: italic;
}

.detailed rect.nocolor {
  fill: #ffffff;
}

.detailed rect.bysex {
  fill: #eeeeee;
}

.detailed rect.bysex.male {
  fill: #dbffff;
}

.detailed rect.bysex.female {
  fill: #ffdbed;
}

.detailed rect.bygeneration {
  fill: #ffffdd;
}

.generation-11 .detailed rect.bygeneration, .generation1 .detailed rect.bygeneration {
  fill: #edffdb;
}

.generation-10 .detailed rect.bygeneration, .generation2 .detailed rect.bygeneration {
  fill: #dbffdb;
}

.generation-9 .detailed rect.bygeneration, .generation3 .detailed rect.bygeneration {
  fill: #dbffed;
}

.generation-8 .detailed rect.bygeneration, .generation4 .detailed rect.bygeneration {
  fill: #dbffff;
}

.generation-7 .detailed rect.bygeneration, .generation5 .detailed rect.bygeneration {
  fill: #dbedff;
}

.generation-6 .detailed rect.bygeneration, .generation6 .detailed rect.bygeneration {
  fill: #dbdbff;
}

.generation-5 .detailed rect.bygeneration, .generation7 .detailed rect.bygeneration {
  fill: #eddbff;
}

.generation-4 .detailed rect.bygeneration, .generation8 .detailed rect.bygeneration {
  fill: #ffdbff;
}

.generation-3 .detailed rect.bygeneration, .generation9 .detailed rect.bygeneration {
  fill: #ffdbed;
}

.generation-2 .detailed rect.bygeneration, .generation10 .detailed rect.bygeneration {
  fill: #ffdbdb;
}

.generation-1 .detailed rect.bygeneration, .generation11 .detailed rect.bygeneration {
  fill: #ffeddb;
}
.expander {
  fill: white;
  stroke: black;
  stroke-width: 2px;
  cursor: pointer;
}</style><g transform="translate(1276.80859375, 220)"><path class="link" d="M -7.06640625 148&#10;            L -7.06640625 222,&#10;              -85.90625 222,&#10;              -85.90625 282"/><path class="link" d="M 0 0&#10;            L 0 74,&#10;              -95.0859375 74,&#10;              -95.0859375 148"/><path class="link" d="M -183.5390625 -148&#10;            L -183.5390625 -74,&#10;              -88.01953125 -74,&#10;              -88.01953125 0"/><path class="link" d="M 183.5390625 -148&#10;            L 183.5390625 -74,&#10;              88.01953125 -74,&#10;              88.01953125 0"/><path class="link" d="M -21.15625 282&#10;            L -21.15625 342,&#10;              -195.0078125 342,&#10;              -195.0078125 402"/><path class="link" d="M -21.15625 282&#10;            L -21.15625 342,&#10;              -29.8984375 342,&#10;              -29.8984375 402"/><path class="link" d="M -21.15625 282&#10;            L -21.15625 342,&#10;              142.7578125 342,&#10;              142.7578125 402"/><path class="link" d="M 0 0&#10;            L 0 74,&#10;              -1024.23046875 74,&#10;              -1024.23046875 148" style="opacity: 1;"/><path class="link" d="M 0 0&#10;            L 0 74,&#10;              -845.796875 74,&#10;              -845.796875 148" style="opacity: 1;"/><path class="link" d="M 0 0&#10;            L 0 74,&#10;              337.09765625 74,&#10;              337.09765625 148" style="opacity: 1;"/><path class="link" d="M 0 0&#10;            L 0 74,&#10;              790.80078125 74,&#10;              790.80078125 148" style="opacity: 1;"/><path class="link" d="M -757.77734375 148&#10;            L -757.77734375 222,&#10;              -1201.0390625 222,&#10;              -1201.0390625 282" style="opacity: 1;"/><path class="link" d="M -757.77734375 148&#10;            L -757.77734375 222,&#10;              -1060.59375 222,&#10;              -1060.59375 282" style="opacity: 1;"/><path class="link" d="M -757.77734375 148&#10;            L -757.77734375 222,&#10;              -920.1484375 222,&#10;              -920.1484375 282" style="opacity: 1;"/><path class="link additional-marriage" d="M -625.8671875, 282&#10;            L -920.1484375, 282" style="opacity: 1;"/><path class="link" d="M -757.77734375 148&#10;            L -757.77734375 222,&#10;              -489.328125 222,&#10;              -489.328125 282" style="opacity: 1;"/><path class="link" d="M -757.77734375 148&#10;            L -757.77734375 222,&#10;              -352.7890625 222,&#10;              -352.7890625 282" style="opacity: 1;"/><path class="link" d="M 412.51171875 148&#10;            L 412.51171875 222,&#10;              234.99609375 222,&#10;              234.99609375 282" style="opacity: 1;"/><path class="link additional-marriage" d="M 464.90234375, 282&#10;            L 234.99609375, 282" style="opacity: 1;"/><path class="link" d="M 412.51171875 148&#10;            L 412.51171875 222,&#10;              683.21484375 222,&#10;              683.21484375 282" style="opacity: 1;"/><path class="link" d="M -625.8671875 282&#10;            L -625.8671875 342,&#10;              -625.8671875 342,&#10;              -625.8671875 402" style="opacity: 1;"/><path class="link" d="M -352.7890625 282&#10;            L -352.7890625 342,&#10;              -392.2890625 342,&#10;              -392.2890625 402" style="opacity: 1;"/><path class="link" d="M -352.7890625 282&#10;            L -352.7890625 342,&#10;              -313.2890625 342,&#10;              -313.2890625 402" style="opacity: 1;"/><path class="link" d="M 304.65234375 282&#10;            L 304.65234375 342,&#10;              272.79296875 342,&#10;              272.79296875 402" style="opacity: 1;"/><g class="node generation-1" transform="translate(-1099.64453125, 91)" style="opacity: 1;"><g class="detailed"><g class="indi" transform=""><rect rx="5" stroke-width="0" class="background bygeneration male" width="150.828125" height="114"/><clipPath id="clip-I285"><rect rx="5" width="150.828125" height="114"/></clipPath><text text-anchor="middle" class="name" transform="translate(75.4140625, 17)">Carlos Miguel</text><text text-anchor="middle" class="name" transform="translate(75.4140625, 33)">MOREIRA VICENTE</text><text text-anchor="middle" class="details" transform="translate(9, 49)">*</text><text class="details" transform="translate(15, 49)">   19 </text><text text-anchor="middle" class="details" transform="translate(9, 63)">+</text><text class="details" transform="translate(15, 63)">   2002 </text><text text-anchor="middle" class="details" transform="translate(9, 77)"/><text class="details" transform="translate(15, 77)">Vigo, Pontevedra (SPAIN)</text><text class="id" transform="translate(9, 109)">I285</text><text class="details sex" text-anchor="end" transform="translate(145.828125, 109)">♂</text><rect rx="5" fill-opacity="0" class="border" width="150.828125" height="114"/></g></g></g><g class="node generation-1" transform="translate(-933.81640625, 91)" style="opacity: 1;"><g class="detailed"><g class="indi" transform=""><rect rx="5" stroke-width="0" class="background bygeneration male" width="176.0390625" height="114"/><clipPath id="clip-I266"><rect rx="5" width="176.0390625" height="114"/></clipPath><text text-anchor="middle" class="name" transform="translate(88.01953125, 17)">José Luis</text><text text-anchor="middle" class="name" transform="translate(88.01953125, 33)">MOREIRA VICENTE</text><text text-anchor="middle" class="details" transform="translate(9, 49)">*</text><text class="details" transform="translate(15, 49)"> 4 Feb 1941 </text><text text-anchor="middle" class="details" transform="translate(9, 63)"/><text class="details" transform="translate(15, 63)">A Guarda, Pontevedra (SPAIN)</text><text text-anchor="middle" class="details" transform="translate(9, 77)">+</text><text class="details" transform="translate(15, 77)">   2023 </text><text text-anchor="middle" class="details" transform="translate(9, 91)"/><text class="details" transform="translate(15, 91)">A Coruña (SPAIN)</text><text class="id" transform="translate(9, 109)">I266</text><text class="details sex" text-anchor="end" transform="translate(171.0390625, 109)">♂</text><rect rx="5" fill-opacity="0" class="border" width="176.0390625" height="114"/></g><g class="indi" transform="translate(176.0390625, 0)"><rect rx="5" stroke-width="0" class="background bygeneration female" width="137.765625" height="114"/><clipPath id="clip-I267"><rect rx="5" width="137.765625" height="114"/></clipPath><text text-anchor="middle" class="name" transform="translate(68.8828125, 17)">Maria Lourdes</text><text text-anchor="middle" class="name" transform="translate(68.8828125, 33)">RUBIO MAQUIEIRA</text><text class="id" transform="translate(9, 109)">I267</text><text class="details sex" text-anchor="end" transform="translate(132.765625, 109)">♀</text><rect rx="5" fill-opacity="0" class="border" width="137.765625" height="114"/></g><g class="family" transform="translate(176.0390625, 114)"/></g></g><g class="node generation-1" transform="translate(-183.10546875, 91)"><g class="detailed"><g class="indi" transform="translate(0, 0)"><rect rx="5" stroke-width="0" class="background bygeneration male" width="176.0390625" height="114"/><clipPath id="clip-I14"><rect rx="5" width="176.0390625" height="114"/></clipPath><text text-anchor="middle" class="name" transform="translate(88.01953125, 17)">Manuel</text><text text-anchor="middle" class="name" transform="translate(88.01953125, 33)">MOREIRA VICENTE</text><text text-anchor="middle" class="details" transform="translate(9, 49)">*</text><text class="details" transform="translate(15, 49)"> 27 Nov 1943 </text><text text-anchor="middle" class="details" transform="translate(9, 63)"/><text class="details" transform="translate(15, 63)">A Guarda, Pontevedra (SPAIN)</text><text class="id" transform="translate(9, 109)">I14</text><text class="details sex" text-anchor="end" transform="translate(171.0390625, 109)">♂</text><rect rx="5" fill-opacity="0" class="border" width="176.0390625" height="114"/></g><g class="indi" transform="translate(176.0390625, 0)"><rect rx="5" stroke-width="0" class="background bygeneration female" width="145.46875" height="114"/><clipPath id="clip-I16"><rect rx="5" width="145.46875" height="114"/></clipPath><text text-anchor="middle" class="name" transform="translate(72.734375, 17)">María Del Pilar</text><text text-anchor="middle" class="name" transform="translate(72.734375, 33)">GARCÍA CARBONELL</text><text text-anchor="middle" class="details" transform="translate(9, 49)">*</text><text class="details" transform="translate(15, 49)"> 20 Feb 1954 </text><text text-anchor="middle" class="details" transform="translate(9, 63)"/><text class="details" transform="translate(15, 63)">Madrid (SPAIN)</text><text class="id" transform="translate(9, 109)">I16</text><text class="details sex" text-anchor="end" transform="translate(140.46875, 109)">♀</text><rect rx="5" fill-opacity="0" class="border" width="145.46875" height="114"/></g><g class="family" transform="translate(176.0390625, 114)"/></g></g><g class="node generation-2" transform="translate(-176.0390625, -57)"><g class="detailed"><g class="indi" transform="translate(0, 0)"><rect rx="5" stroke-width="0" class="background bygeneration male" width="176.0390625" height="114"/><clipPath id="clip-I17"><rect rx="5" width="176.0390625" height="114"/></clipPath><text text-anchor="middle" class="name" transform="translate(88.01953125, 17)">Serafín</text><text text-anchor="middle" class="name" transform="translate(88.01953125, 33)">MOREIRA PORTELA</text><text text-anchor="middle" class="details" transform="translate(9, 49)">*</text><text class="details" transform="translate(15, 49)">   1910 </text><text text-anchor="middle" class="details" transform="translate(9, 63)"/><text class="details" transform="translate(15, 63)">A Guarda, Pontevedra (SPAIN)</text><text text-anchor="middle" class="details" transform="translate(9, 77)">+</text><text class="details" transform="translate(15, 77)">   1997 </text><text text-anchor="middle" class="details" transform="translate(9, 91)"/><text class="details" transform="translate(15, 91)">Vigo, Galicia (SPAIN)</text><text class="id" transform="translate(9, 109)">I17</text><text class="details sex" text-anchor="end" transform="translate(171.0390625, 109)">♂</text><rect rx="5" fill-opacity="0" class="border" width="176.0390625" height="114"/></g><g class="indi" transform="translate(176.0390625, 0)"><rect rx="5" stroke-width="0" class="background bygeneration female" width="176.0390625" height="114"/><clipPath id="clip-I15"><rect rx="5" width="176.0390625" height="114"/></clipPath><text text-anchor="middle" class="name" transform="translate(88.01953125, 17)">María</text><text text-anchor="middle" class="name" transform="translate(88.01953125, 33)">VICENTE GONZÁLEZ</text><text text-anchor="middle" class="details" transform="translate(9, 49)">*</text><text class="details" transform="translate(15, 49)">   1914 </text><text text-anchor="middle" class="details" transform="translate(9, 63)"/><text class="details" transform="translate(15, 63)">A Guarda, Pontevedra (SPAIN)</text><text text-anchor="middle" class="details" transform="translate(9, 77)">+</text><text class="details" transform="translate(15, 77)">   1995 </text><text text-anchor="middle" class="details" transform="translate(9, 91)"/><text class="details" transform="translate(15, 91)">Vigo, Pontevedra (SPAIN)</text><text class="id" transform="translate(9, 109)">I15</text><text class="details sex" text-anchor="end" transform="translate(171.0390625, 109)">♀</text><rect rx="5" fill-opacity="0" class="border" width="176.0390625" height="114"/></g><g class="family" transform="translate(176.0390625, 114)"/></g></g><g class="node generation-3" transform="translate(-359.578125, -205)"><g class="detailed"><g class="indi" transform="translate(0, 0)"><rect rx="5" stroke-width="0" class="background bygeneration male" width="176.0390625" height="114"/><clipPath id="clip-I295"><rect rx="5" width="176.0390625" height="114"/></clipPath><text text-anchor="middle" class="name" transform="translate(88.01953125, 17)">Antonio José</text><text text-anchor="middle" class="name" transform="translate(88.01953125, 33)">MOREIRA FERNANDES</text><text text-anchor="middle" class="details" transform="translate(9, 49)">*</text><text class="details" transform="translate(15, 49)">   1883 </text><text text-anchor="middle" class="details" transform="translate(9, 63)"/><text class="details" transform="translate(15, 63)">Portugal</text><text text-anchor="middle" class="details" transform="translate(9, 77)">+</text><text class="details" transform="translate(15, 77)">   1971 </text><text text-anchor="middle" class="details" transform="translate(9, 91)"/><text class="details" transform="translate(15, 91)">A Guarda, Pontevedra (SPAIN)</text><text class="id" transform="translate(9, 109)">I295</text><text class="details sex" text-anchor="end" transform="translate(171.0390625, 109)">♂</text><rect rx="5" fill-opacity="0" class="border" width="176.0390625" height="114"/></g><g class="indi" transform="translate(176.0390625, 0)"><rect rx="5" stroke-width="0" class="background bygeneration female" width="176.0390625" height="114"/><clipPath id="clip-I296"><rect rx="5" width="176.0390625" height="114"/></clipPath><text text-anchor="middle" class="name" transform="translate(88.01953125, 17)">María</text><text text-anchor="middle" class="name" transform="translate(88.01953125, 33)">PORTELA PORTELA</text><text text-anchor="middle" class="details" transform="translate(9, 49)">*</text><text class="details" transform="translate(15, 49)">   1881 </text><text text-anchor="middle" class="details" transform="translate(9, 63)"/><text class="details" transform="translate(15, 63)">A Guarda, Pontevedra (SPAIN)</text><text text-anchor="middle" class="details" transform="translate(9, 77)">+</text><text class="details" transform="translate(15, 77)">   1948 </text><text text-anchor="middle" class="details" transform="translate(9, 91)"/><text class="details" transform="translate(15, 91)">A Guarda, Pontevedra (SPAIN)</text><text class="id" transform="translate(9, 109)">I296</text><text class="details sex" text-anchor="end" transform="translate(171.0390625, 109)">♀</text><rect rx="5" fill-opacity="0" class="border" width="176.0390625" height="114"/></g><g class="family" transform="translate(176.0390625, 114)"/></g></g><g class="node generation-3" transform="translate(7.5, -205)"><g class="detailed"><g class="indi" transform="translate(0, 0)"><rect rx="5" stroke-width="0" class="background bygeneration male" width="176.0390625" height="114"/><clipPath id="clip-I290"><rect rx="5" width="176.0390625" height="114"/></clipPath><text text-anchor="middle" class="name" transform="translate(88.01953125, 17)">Bernardino</text><text text-anchor="middle" class="name" transform="translate(88.01953125, 33)">VICENTE SILVA</text><text text-anchor="middle" class="details" transform="translate(9, 49)">*</text><text class="details" transform="translate(15, 49)">   1882 </text><text text-anchor="middle" class="details" transform="translate(9, 63)"/><text class="details" transform="translate(15, 63)">A Guarda, Pontevedra (SPAIN)</text><text text-anchor="middle" class="details" transform="translate(9, 77)">+</text><text class="details" transform="translate(15, 77)">   1972 </text><text text-anchor="middle" class="details" transform="translate(9, 91)"/><text class="details" transform="translate(15, 91)">A Guarda, Pontevedra (SPAIN)</text><text class="id" transform="translate(9, 109)">I290</text><text class="details sex" text-anchor="end" transform="translate(171.0390625, 109)">♂</text><rect rx="5" fill-opacity="0" class="border" width="176.0390625" height="114"/></g><g class="indi" transform="translate(176.0390625, 0)"><rect rx="5" stroke-width="0" class="background bygeneration female" width="176.0390625" height="114"/><clipPath id="clip-I301"><rect rx="5" width="176.0390625" height="114"/></clipPath><text text-anchor="middle" class="name" transform="translate(88.01953125, 17)">Dolores</text><text text-anchor="middle" class="name" transform="translate(88.01953125, 33)">GONZÁLEZ VICENTE</text><text text-anchor="middle" class="details" transform="translate(9, 49)">*</text><text class="details" transform="translate(15, 49)">   1885 </text><text text-anchor="middle" class="details" transform="translate(9, 63)"/><text class="details" transform="translate(15, 63)">A Guarda, Pontevedra (SPAIN)</text><text text-anchor="middle" class="details" transform="translate(9, 77)">+</text><text class="details" transform="translate(15, 77)">   1948 </text><text text-anchor="middle" class="details" transform="translate(9, 91)"/><text class="details" transform="translate(15, 91)">A Guarda, Pontevedra (SPAIN)</text><text class="id" transform="translate(9, 109)">I301</text><text class="details sex" text-anchor="end" transform="translate(171.0390625, 109)">♀</text><rect rx="5" fill-opacity="0" class="border" width="176.0390625" height="114"/></g><g class="family" transform="translate(176.0390625, 114)"/></g></g><g class="node generation-1" transform="translate(261.68359375, 91)" style="opacity: 1;"><g class="detailed"><g class="indi" transform=""><rect rx="5" stroke-width="0" class="background bygeneration male" width="150.828125" height="114"/><clipPath id="clip-I275"><rect rx="5" width="150.828125" height="114"/></clipPath><text text-anchor="middle" class="name" transform="translate(75.4140625, 17)">Víctor Feliciano</text><text text-anchor="middle" class="name" transform="translate(75.4140625, 33)">MOREIRA VICENTE</text><text text-anchor="middle" class="details" transform="translate(9, 49)">*</text><text class="details" transform="translate(15, 49)"> 7 Jan 1947 </text><text text-anchor="middle" class="details" transform="translate(9, 63)"/><text class="details" transform="translate(15, 63)">Vigo, Pontevedra (SPAIN)</text><text class="id" transform="translate(9, 109)">I275</text><text class="details sex" text-anchor="end" transform="translate(145.828125, 109)">♂</text><rect rx="5" fill-opacity="0" class="border" width="150.828125" height="114"/></g><g class="indi" transform="translate(150.828125, 0)"><rect rx="5" stroke-width="0" class="background bygeneration female" width="244.015625" height="114"/><clipPath id="clip-I276"><rect rx="5" width="244.015625" height="114"/></clipPath><text text-anchor="middle" class="name" transform="translate(122.0078125, 17)">María De La Concepción (Conchita)</text><text text-anchor="middle" class="name" transform="translate(122.0078125, 33)">GIRALDO</text><text class="id" transform="translate(9, 109)">I276</text><text class="details sex" text-anchor="end" transform="translate(239.015625, 109)">♀</text><rect rx="5" fill-opacity="0" class="border" width="244.015625" height="114"/></g><g class="family" transform="translate(150.828125, 114)"/></g></g><g class="node generation-1" transform="translate(671.52734375, 91)" style="opacity: 1;"><g class="detailed"><g class="indi" transform=""><rect rx="5" stroke-width="0" class="background bygeneration female" width="238.546875" height="114"/><clipPath id="clip-I283"><rect rx="5" width="238.546875" height="114"/></clipPath><text text-anchor="middle" class="name" transform="translate(119.2734375, 17)">María Del Carmen</text><text text-anchor="middle" class="name" transform="translate(119.2734375, 33)">MOREIRA VICENTE</text><text text-anchor="middle" class="details" transform="translate(9, 49)">*</text><text class="details" transform="translate(15, 49)">   1952 </text><text text-anchor="middle" class="details" transform="translate(9, 63)"/><text class="details" transform="translate(15, 63)">Vigo, Pontevedra (SPAIN)</text><text text-anchor="middle" class="details" transform="translate(9, 77)">+</text><text class="details" transform="translate(15, 77)">   2023 </text><text text-anchor="middle" class="details" transform="translate(9, 91)"/><text class="details" transform="translate(15, 91)">Santiago de Compostela, A Coruña (Spain)</text><text class="id" transform="translate(9, 109)">I283</text><text class="details sex" text-anchor="end" transform="translate(233.546875, 109)">♀</text><rect rx="5" fill-opacity="0" class="border" width="238.546875" height="114"/></g><g class="indi" transform="translate(238.546875, 0)"><rect rx="5" stroke-width="0" class="background bygeneration male" width="189.5703125" height="114"/><clipPath id="clip-I284"><rect rx="5" width="189.5703125" height="114"/></clipPath><text text-anchor="middle" class="name" transform="translate(94.78515625, 17)">José</text><text text-anchor="middle" class="name" transform="translate(94.78515625, 33)">PEREZ VILARIÑO</text><text text-anchor="middle" class="details" transform="translate(9, 49)">*</text><text class="details" transform="translate(15, 49)"> 30 Jul 1938 </text><text text-anchor="middle" class="details" transform="translate(9, 63)"/><text class="details" transform="translate(15, 63)">Ferreira de Panton, Lugo (SPAIN)</text><text class="id" transform="translate(9, 109)">I284</text><text class="details sex" text-anchor="end" transform="translate(184.5703125, 109)">♂</text><rect rx="5" fill-opacity="0" class="border" width="189.5703125" height="114"/></g><g class="family" transform="translate(238.546875, 114)"/></g></g><g class="node generation0" transform="translate(-1261.80859375, 239)" style="opacity: 1;"><g class="detailed"><g class="indi" transform=""><rect rx="5" stroke-width="0" class="background bygeneration male" width="121.5390625" height="86"/><clipPath id="clip-I268"><rect rx="5" width="121.5390625" height="86"/></clipPath><text text-anchor="middle" class="name" transform="translate(60.76953125, 17)">Alberto</text><text text-anchor="middle" class="name" transform="translate(60.76953125, 33)">MOREIRA RUBIO</text><text class="id" transform="translate(9, 81)">I268</text><text class="details sex" text-anchor="end" transform="translate(116.5390625, 81)">♂</text><rect rx="5" fill-opacity="0" class="border" width="121.5390625" height="86"/></g></g></g><g class="node generation0" transform="translate(-1125.26953125, 239)" style="opacity: 1;"><g class="detailed"><g class="indi" transform=""><rect rx="5" stroke-width="0" class="background bygeneration male" width="129.3515625" height="86"/><clipPath id="clip-I269"><rect rx="5" width="129.3515625" height="86"/></clipPath><text text-anchor="middle" class="name" transform="translate(64.67578125, 17)">José Luis (Yoyito)</text><text text-anchor="middle" class="name" transform="translate(64.67578125, 33)">MOREIRA RUBIO</text><text class="id" transform="translate(9, 81)">I269</text><text class="details sex" text-anchor="end" transform="translate(124.3515625, 81)">♂</text><rect rx="5" fill-opacity="0" class="border" width="129.3515625" height="86"/></g></g></g><g class="node generation0" transform="translate(-980.91796875, 239)" style="opacity: 1;"><g class="detailed"><g class="indi" transform=""><rect rx="5" stroke-width="0" class="background bygeneration female" width="121.5390625" height="86"/><clipPath id="clip-I270"><rect rx="5" width="121.5390625" height="86"/></clipPath><text text-anchor="middle" class="name" transform="translate(60.76953125, 17)">Marta</text><text text-anchor="middle" class="name" transform="translate(60.76953125, 33)">MOREIRA RUBIO</text><text text-anchor="middle" class="details" transform="translate(9, 49)">*</text><text class="details" transform="translate(15, 49)">   1974 </text><text class="id" transform="translate(9, 81)">I270</text><text class="details sex" text-anchor="end" transform="translate(116.5390625, 81)">♀</text><rect rx="5" fill-opacity="0" class="border" width="121.5390625" height="86"/></g><g class="indi" transform="translate(121.5390625, 0)"><rect rx="5" stroke-width="0" class="background bygeneration male" width="157.7421875" height="86"/><clipPath id="clip-I322"><rect rx="5" width="157.7421875" height="86"/></clipPath><text text-anchor="middle" class="name" transform="translate(78.87109375, 17)">José Antonio (Pepiño)</text><text text-anchor="middle" class="name" transform="translate(78.87109375, 33)">OLCINA</text><text class="id" transform="translate(9, 81)">I322</text><text class="details sex" text-anchor="end" transform="translate(152.7421875, 81)">♂</text><rect rx="5" fill-opacity="0" class="border" width="157.7421875" height="86"/></g><g class="family" transform="translate(121.5390625, 86)"/></g></g><g class="node generation0" transform="translate(-686.63671875, 239)" style="opacity: 1;"><g class="detailed"><g class="indi" transform=""><rect rx="5" stroke-width="0" class="background bygeneration female" width="121.5390625" height="86"/><clipPath id="clip-I270"><rect rx="5" width="121.5390625" height="86"/></clipPath><text text-anchor="middle" class="name" transform="translate(60.76953125, 17)">Marta</text><text text-anchor="middle" class="name" transform="translate(60.76953125, 33)">MOREIRA RUBIO</text><text text-anchor="middle" class="details" transform="translate(9, 49)">*</text><text class="details" transform="translate(15, 49)">   1974 </text><text class="id" transform="translate(9, 81)">I270</text><text class="details sex" text-anchor="end" transform="translate(116.5390625, 81)">♀</text><rect rx="5" fill-opacity="0" class="border" width="121.5390625" height="86"/></g><g class="family" transform="translate(60.76953125, 86)"/></g></g><g class="node generation0" transform="translate(-550.09765625, 239)" style="opacity: 1;"><g class="detailed"><g class="indi" transform=""><rect rx="5" stroke-width="0" class="background bygeneration male" width="121.5390625" height="86"/><clipPath id="clip-I271"><rect rx="5" width="121.5390625" height="86"/></clipPath><text text-anchor="middle" class="name" transform="translate(60.76953125, 17)">Santiago (Yago)</text><text text-anchor="middle" class="name" transform="translate(60.76953125, 33)">MOREIRA RUBIO</text><text text-anchor="middle" class="details" transform="translate(9, 49)">*</text><text class="details" transform="translate(15, 49)">   1981 </text><text class="id" transform="translate(9, 81)">I271</text><text class="details sex" text-anchor="end" transform="translate(116.5390625, 81)">♂</text><rect rx="5" fill-opacity="0" class="border" width="121.5390625" height="86"/></g></g></g><g class="node generation0" transform="translate(-413.55859375, 239)" style="opacity: 1;"><g class="detailed"><g class="indi" transform=""><rect rx="5" stroke-width="0" class="background bygeneration female" width="121.5390625" height="86"/><clipPath id="clip-I272"><rect rx="5" width="121.5390625" height="86"/></clipPath><text text-anchor="middle" class="name" transform="translate(60.76953125, 17)">Susana</text><text text-anchor="middle" class="name" transform="translate(60.76953125, 33)">MOREIRA RUBIO</text><text text-anchor="middle" class="details" transform="translate(9, 49)">*</text><text class="details" transform="translate(15, 49)">   1983 </text><text class="id" transform="translate(9, 81)">I272</text><text class="details sex" text-anchor="end" transform="translate(116.5390625, 81)">♀</text><rect rx="5" fill-opacity="0" class="border" width="121.5390625" height="86"/></g><g class="family" transform="translate(60.76953125, 86)"/></g></g><g class="node generation0" transform="translate(-150.65625, 239)"><g class="detailed"><g class="indi" transform="translate(129.5, 0)"><rect rx="5" stroke-width="0" class="background bygeneration male" width="127.109375" height="86"/><clipPath id="clip-I1"><rect rx="5" width="127.109375" height="86"/></clipPath><text text-anchor="middle" class="name" transform="translate(63.5546875, 17)">Joaquín Diego</text><text text-anchor="middle" class="name" transform="translate(63.5546875, 33)">REYES GONZÁLEZ</text><text text-anchor="middle" class="details" transform="translate(9, 49)">*</text><text class="details" transform="translate(15, 49)"> 18 Nov 1980 </text><text text-anchor="middle" class="details" transform="translate(9, 63)"/><text class="details" transform="translate(15, 63)">Madrid (SPAIN)</text><text class="id" transform="translate(9, 81)">I1</text><text class="details sex" text-anchor="end" transform="translate(122.109375, 81)">♂</text><rect rx="5" fill-opacity="0" class="border" width="127.109375" height="86"/></g><g class="indi" transform="translate(0, 0)"><rect rx="5" stroke-width="0" class="background bygeneration female" width="129.5" height="86"/><clipPath id="clip-I6"><rect rx="5" width="129.5" height="86"/></clipPath><text text-anchor="middle" class="name" transform="translate(64.75, 17)">Ana María</text><text text-anchor="middle" class="name" transform="translate(64.75, 33)">MOREIRA GARCÍA</text><text text-anchor="middle" class="details" transform="translate(9, 49)">*</text><text class="details" transform="translate(15, 49)"> 23 Mar 1982 </text><text text-anchor="middle" class="details" transform="translate(9, 63)"/><text class="details" transform="translate(15, 63)">Madrid (SPAIN)</text><text class="id" transform="translate(9, 81)">I6</text><text class="details sex" text-anchor="end" transform="translate(124.5, 81)">♀</text><rect rx="5" fill-opacity="0" class="border" width="129.5" height="86"/></g><g class="family" transform="translate(129.5, 86)"/></g></g><g class="node generation0" transform="translate(165.33984375, 239)" style="opacity: 1;"><g class="detailed"><g class="indi" transform=""><rect rx="5" stroke-width="0" class="background bygeneration male" width="139.3125" height="86"/><clipPath id="clip-I277"><rect rx="5" width="139.3125" height="86"/></clipPath><text text-anchor="middle" class="name" transform="translate(69.65625, 17)">Víctor</text><text text-anchor="middle" class="name" transform="translate(69.65625, 33)">MOREIRA GIRALDO</text><text text-anchor="middle" class="details" transform="translate(9, 49)">*</text><text class="details" transform="translate(15, 49)">  about 1975</text><text text-anchor="middle" class="details" transform="translate(9, 63)"/><text class="details" transform="translate(15, 63)">Madrid (SPAIN)</text><text class="id" transform="translate(9, 81)">I277</text><text class="details sex" text-anchor="end" transform="translate(134.3125, 81)">♂</text><rect rx="5" fill-opacity="0" class="border" width="139.3125" height="86"/></g><g class="indi" transform="translate(139.3125, 0)"><rect rx="5" stroke-width="0" class="background bygeneration female" width="75.59375" height="86"/><clipPath id="clip-I278"><rect rx="5" width="75.59375" height="86"/></clipPath><text text-anchor="middle" class="name" transform="translate(37.796875, 17)">Almudena</text><text text-anchor="middle" class="name" transform="translate(37.796875, 33)"/><text class="id" transform="translate(9, 81)">I278</text><text class="details sex" text-anchor="end" transform="translate(70.59375, 81)">♀</text><rect rx="5" fill-opacity="0" class="border" width="75.59375" height="86"/></g><g class="family" transform="translate(139.3125, 86)"/></g></g><g class="node generation0" transform="translate(395.24609375, 239)" style="opacity: 1;"><g class="detailed"><g class="indi" transform=""><rect rx="5" stroke-width="0" class="background bygeneration male" width="139.3125" height="86"/><clipPath id="clip-I277"><rect rx="5" width="139.3125" height="86"/></clipPath><text text-anchor="middle" class="name" transform="translate(69.65625, 17)">Víctor</text><text text-anchor="middle" class="name" transform="translate(69.65625, 33)">MOREIRA GIRALDO</text><text text-anchor="middle" class="details" transform="translate(9, 49)">*</text><text class="details" transform="translate(15, 49)">  about 1975</text><text text-anchor="middle" class="details" transform="translate(9, 63)"/><text class="details" transform="translate(15, 63)">Madrid (SPAIN)</text><text class="id" transform="translate(9, 81)">I277</text><text class="details sex" text-anchor="end" transform="translate(134.3125, 81)">♂</text><rect rx="5" fill-opacity="0" class="border" width="139.3125" height="86"/></g><g class="indi" transform="translate(139.3125, 0)"><rect rx="5" stroke-width="0" class="background bygeneration female" width="64" height="86"/><clipPath id="clip-I280"><rect rx="5" width="64" height="86"/></clipPath><text text-anchor="middle" class="name" transform="translate(32, 17)">Vanesa</text><text text-anchor="middle" class="name" transform="translate(32, 33)"/><text class="id" transform="translate(9, 81)">I280</text><text class="details sex" text-anchor="end" transform="translate(59, 81)">♀</text><rect rx="5" fill-opacity="0" class="border" width="64" height="86"/></g><g class="family" transform="translate(139.3125, 86)"/></g></g><g class="node generation0" transform="translate(613.55859375, 239)" style="opacity: 1;"><g class="detailed"><g class="indi" transform=""><rect rx="5" stroke-width="0" class="background bygeneration male" width="139.3125" height="86"/><clipPath id="clip-I282"><rect rx="5" width="139.3125" height="86"/></clipPath><text text-anchor="middle" class="name" transform="translate(69.65625, 17)">Alejandro</text><text text-anchor="middle" class="name" transform="translate(69.65625, 33)">MOREIRA GIRALDO</text><text text-anchor="middle" class="details" transform="translate(9, 49)">*</text><text class="details" transform="translate(15, 49)"> 18 Mar 1984 </text><text text-anchor="middle" class="details" transform="translate(9, 63)"/><text class="details" transform="translate(15, 63)">Madrid (SPAIN)</text><text class="id" transform="translate(9, 81)">I282</text><text class="details sex" text-anchor="end" transform="translate(134.3125, 81)">♂</text><rect rx="5" fill-opacity="0" class="border" width="139.3125" height="86"/></g></g></g><g class="node generation1" transform="translate(-657.8671875, 359)" style="opacity: 1;"><g class="detailed"><g class="indi" transform=""><rect rx="5" stroke-width="0" class="background bygeneration male" width="64" height="86"/><clipPath id="clip-I274"><rect rx="5" width="64" height="86"/></clipPath><text text-anchor="middle" class="name" transform="translate(32, 17)">Jorge</text><text text-anchor="middle" class="name" transform="translate(32, 33)"/><text class="id" transform="translate(9, 81)">I274</text><text class="details sex" text-anchor="end" transform="translate(59, 81)">♂</text><rect rx="5" fill-opacity="0" class="border" width="64" height="86"/></g></g></g><g class="node generation1" transform="translate(-424.2890625, 359)" style="opacity: 1;"><g class="detailed"><g class="indi" transform=""><rect rx="5" stroke-width="0" class="background bygeneration male" width="64" height="86"/><clipPath id="clip-I273"><rect rx="5" width="64" height="86"/></clipPath><text text-anchor="middle" class="name" transform="translate(32, 17)">Asier</text><text text-anchor="middle" class="name" transform="translate(32, 33)"/><text class="id" transform="translate(9, 81)">I273</text><text class="details sex" text-anchor="end" transform="translate(59, 81)">♂</text><rect rx="5" fill-opacity="0" class="border" width="64" height="86"/></g></g></g><g class="node generation1" transform="translate(-345.2890625, 359)" style="opacity: 1;"><g class="detailed"><g class="indi" transform=""><rect rx="5" stroke-width="0" class="background bygeneration female" width="64" height="86"/><clipPath id="clip-I323"><rect rx="5" width="64" height="86"/></clipPath><text text-anchor="middle" class="name" transform="translate(32, 17)">María</text><text text-anchor="middle" class="name" transform="translate(32, 33)"/><text class="id" transform="translate(9, 81)">I323</text><text class="details sex" text-anchor="end" transform="translate(59, 81)">♀</text><rect rx="5" fill-opacity="0" class="border" width="64" height="86"/></g></g></g><g class="node generation1" transform="translate(-266.2890625, 359)"><g class="detailed"><g class="indi" transform="translate(0, 0)"><rect rx="5" stroke-width="0" class="background bygeneration male" width="142.5625" height="86"/><clipPath id="clip-I7"><rect rx="5" width="142.5625" height="86"/></clipPath><text text-anchor="middle" class="name" transform="translate(71.28125, 17)">Nicolás</text><text text-anchor="middle" class="name" transform="translate(71.28125, 33)">REYES MOREIRA</text><text text-anchor="middle" class="details" transform="translate(9, 49)">*</text><text class="details" transform="translate(15, 49)"> 15 May 2014 </text><text text-anchor="middle" class="details" transform="translate(9, 63)"/><text class="details" transform="translate(15, 63)">Leiden (NETHERLANDS)</text><text class="id" transform="translate(9, 81)">I7</text><text class="details sex" text-anchor="end" transform="translate(137.5625, 81)">♂</text><rect rx="5" fill-opacity="0" class="border" width="142.5625" height="86"/></g></g></g><g class="node generation1" transform="translate(-108.7265625, 359)"><g class="detailed"><g class="indi" transform="translate(0, 0)"><rect rx="5" stroke-width="0" class="background bygeneration male" width="157.65625" height="86"/><clipPath id="clip-I8"><rect rx="5" width="157.65625" height="86"/></clipPath><text text-anchor="middle" class="name" transform="translate(78.828125, 17)">Lucas</text><text text-anchor="middle" class="name" transform="translate(78.828125, 33)">REYES MOREIRA</text><text text-anchor="middle" class="details" transform="translate(9, 49)">*</text><text class="details" transform="translate(15, 49)"> 28 Dec 2017 </text><text text-anchor="middle" class="details" transform="translate(9, 63)"/><text class="details" transform="translate(15, 63)">Prague (CZECH REPUBLIC)</text><text class="id" transform="translate(9, 81)">I8</text><text class="details sex" text-anchor="end" transform="translate(152.65625, 81)">♂</text><rect rx="5" fill-opacity="0" class="border" width="157.65625" height="86"/></g></g></g><g class="node generation1" transform="translate(63.9296875, 359)"><g class="detailed"><g class="indi" transform="translate(0, 0)"><rect rx="5" stroke-width="0" class="background bygeneration male" width="157.65625" height="86"/><clipPath id="clip-I9"><rect rx="5" width="157.65625" height="86"/></clipPath><text text-anchor="middle" class="name" transform="translate(78.828125, 17)">Tomás</text><text text-anchor="middle" class="name" transform="translate(78.828125, 33)">REYES MOREIRA</text><text text-anchor="middle" class="details" transform="translate(9, 49)">*</text><text class="details" transform="translate(15, 49)"> 28 Dec 2017 </text><text text-anchor="middle" class="details" transform="translate(9, 63)"/><text class="details" transform="translate(15, 63)">Prague (CZECH REPUBLIC)</text><text class="id" transform="translate(9, 81)">I9</text><text class="details sex" text-anchor="end" transform="translate(152.65625, 81)">♂</text><rect rx="5" fill-opacity="0" class="border" width="157.65625" height="86"/></g></g></g><g class="node generation1" transform="translate(236.5859375, 359)" style="opacity: 1;"><g class="detailed"><g class="indi" transform=""><rect rx="5" stroke-width="0" class="background bygeneration female" width="72.4140625" height="86"/><clipPath id="clip-I279"><rect rx="5" width="72.4140625" height="86"/></clipPath><text text-anchor="middle" class="name" transform="translate(36.20703125, 17)">Daniela</text><text text-anchor="middle" class="name" transform="translate(36.20703125, 33)">MOREIRA</text><text class="id" transform="translate(9, 81)">I279</text><text class="details sex" text-anchor="end" transform="translate(67.4140625, 81)">♀</text><rect rx="5" fill-opacity="0" class="border" width="72.4140625" height="86"/></g></g></g></g></g></svg>